<?xml version="1.0" encoding="UTF-8"?>
<!--
  FAVICON PREVIEW — only the home/building icon mark
  Open this file in your browser to preview.
  viewBox crops to just the icon portion of the full logo.
-->
<svg xmlns="http://www.w3.org/2000/svg" viewBox="35 128 450 450">
  <defs>
    <style>
      .cls-1 { fill: #2a66b0; }
      .cls-2 { fill: #808081; }
    </style>
  </defs>

  <!-- Blue building / M icon paths -->
  <g>
    <path class="cls-1" d="M199.87,343.17c4.22,1.05,7.64,3.39,10.89,6.01,6.5,5.24,12.02,11.46,17.57,17.66,8.08,9.03,15.79,18.39,24.93,26.41,4.84,4.25,10,8.01,16.14,10.21,1.3.46,2.48.48,3.79.02,6.04-2.16,11.13-5.83,15.91-9.98,7.57-6.58,14.04-14.21,20.78-21.59,6.33-6.94,12.78-13.77,19.39-20.44,3.56-3.59,7.74-6.48,12.54-8.32.24-.09.49-.17,1-.35-2.05,2.15-3.99,3.99-5.71,6.02-5.54,6.52-10.07,13.74-14.25,21.18-9.65,17.18-17.52,35.12-23.47,53.93-3.65,11.56-4.33,23.2-2.51,35.07,1.56,10.19,3.24,20.36,4.81,30.54.11.7-.09,1.69-.54,2.18-9.81,10.76-19.67,21.47-29.53,32.18-.07.08-.19.11-.38.21-3.58-3.89-7.18-7.79-10.78-11.71-6.21-6.76-12.41-13.54-18.65-20.27-.87-.93-1.06-1.77-.81-3.04,2.81-14.23,5.12-28.53,5.87-43.04.33-6.38-.91-12.56-2.68-18.62-7.55-25.92-18.72-50.17-33.9-72.52-1.49-2.2-3.14-4.31-4.9-6.29-1.71-1.93-3.66-3.65-5.5-5.46h-.01Z"/>
    <path class="cls-1" d="M447.74,359.56s-.46.07-.84.07c-10.82.02-21.63.02-32.47-.02-.7,0-1.59-.36-2.1-.87-45.7-45.63-91.35-91.3-137.01-136.98-.43-.43-.7-.99-1.21-1.69-1.81,1.88-3.24,3.43-4.73,4.93-38.19,38.17-76.36,76.34-114.53,114.5-9.32,9.32-18.61,18.64-27.96,27.91-.8.8-1.16,1.57-1.16,2.7.02,73.29.02,146.57.02,219.86v1.86h80.61c.17-1.76.34-3.5.53-5.21.36-3.11.77-6.23,1.06-9.37.07-.63-.19-1.4-.56-1.93-11.68-16.73-23.39-33.46-35.13-50.14-.8-1.13-1.01-1.98-.31-3.33,13.62-26.68,27.18-53.4,40.75-80.1,1.11-2.22,2.27-4.44,3.45-6.78,2.8,1.91,4.59,4.49,5.77,7.53,2.08,5.29,1.88,10.74,1.09,16.22-.94,6.57-3.67,12.58-5.89,18.73-4.68,13.13-9.49,26.22-14.2,39.35-.22.63-.05,1.62.34,2.2,6.01,9.03,12.17,17.99,18.13,27.04,1.3,1.96,2.22,4.22,3.09,6.42,1.96,4.92,3.77,9.9,5.96,14.77-.19-2-.39-4.01-.58-6.01-.53-5.24-1.06-10.48-1.62-15.72-.07-.72-.31-1.5-.7-2.12-5.29-8.64-10.62-17.29-16.01-25.88-.77-1.25-.84-2.27-.34-3.62,2.1-5.58,4.08-11.2,6.11-16.83.19-.51.41-.99.51-1.23,4.18,4.03,8.4,8.02,12.51,12.12,10.33,10.43,20.59,20.91,30.93,31.31,1.42,1.42,2.1,2.85,2.17,4.95.39,12.1,1.01,24.21,1.45,36.31.12,3.74.05,7.48.02,11.32h17.91c0-1.35-.02-2.66.05-3.98.6-15.21,1.23-30.42,1.91-45.6.02-.58.39-1.23.8-1.64,13.21-13.45,26.44-26.89,39.69-40.32,1.57-1.57,3.16-3.11,4.88-4.8,1.01,2.8,2,5.55,2.99,8.28,1.3,3.57,2.66,7.12,3.86,10.72.24.7.17,1.76-.22,2.37-5.36,8.81-10.79,17.6-16.2,26.36-.29.51-.65,1.06-.72,1.62-.77,7.44-1.52,14.87-2.05,22.43.14-.29.31-.56.43-.82,2.03-5.34,3.79-10.77,6.13-15.96,1.59-3.53,3.84-6.76,5.99-10.02,4.76-7.19,9.63-14.34,14.49-21.46.6-.89.58-1.62.22-2.56-5.94-16.3-11.9-32.62-17.77-48.94-2.61-7.22-3.72-14.63-2.05-22.26.97-4.49,3.52-8.26,6.69-10.24,4.47,8.81,8.91,17.5,13.33,26.22,10.26,20.23,20.52,40.46,30.85,60.64.63,1.26.56,2.08-.24,3.19-11.71,16.66-23.39,33.32-35.03,50.02-.51.72-.75,1.81-.68,2.68.46,4.68,1.01,9.32,1.55,14.07h70.78v24.75H100.85v-1.52c0-85.1,0-170.2-.02-255.28,0-1.13.34-1.91,1.13-2.7,56.9-56.88,113.78-113.76,170.66-170.63.39-.39.72-.82.94-1.06l174.18,174.18h0Z"/>
  </g>

  <!-- Grey dot + architectural outline detail -->
  <g>
    <path class="cls-2" d="M271.26,391.92c-10.97-.06-19.74-8.86-19.63-19.69.11-11.13,8.95-19.64,20.3-19.56,10.41.07,19.22,9.23,19.07,19.82-.16,10.9-8.88,19.49-19.74,19.43Z"/>
    <path class="cls-2" d="M274.9,155.22c-.69-.72-1.22-.68-1.91,0-5.47,5.49-10.95,10.97-16.45,16.44-4.26,4.23-8.56,8.42-12.81,12.67-5.29,5.29-10.53,10.63-15.81,15.93-7.05,7.08-14.12,14.14-21.18,21.22-8.8,8.81-17.59,17.63-26.39,26.43-11.93,11.93-23.88,23.84-35.82,35.78-10,10-19.98,20.02-29.98,30.02-8.34,8.34-16.7,16.66-25.04,25-6.45,6.45-12.86,12.93-19.35,19.33-.67.66-1.73.98-2.66,1.27-.65.21-1.41.14-2.11.14h-29.83c79.47-79.49,158.94-158.98,238.6-238.66,19.84,19.91,39.76,39.89,59.68,59.88.19-.08.38-.16.58-.24.42-6.66.13-13.33.18-20,.05-6.65.01-13.3.01-20.11h52.12c1.49,0,2.24.74,2.24,2.22,0,30.28.01,60.56-.03,90.84,0,1.6.46,2.75,1.6,3.88,8.54,8.46,17.04,16.96,25.52,25.49,2.32,2.33,4.45,4.86,6.76,7.2,1.54,1.56,3.33,2.89,4.89,4.44,27.96,27.93,55.9,55.87,83.84,83.81.3.3.56.63,1,1.12-.63.07-1.04.15-1.45.15-10.11,0-20.22.03-30.33-.05-.96,0-2.17-.49-2.85-1.16l-203.02-203.05Z"/>
  </g>
</svg>
