<?xml version="1.0" encoding="UTF-8"?>
<svg id="Layer_1" data-name="Layer 1" xmlns="http://www.w3.org/2000/svg" viewBox="0 0 1298.5 737.4">
  <defs>
    <style>
      .cls-1 {
        fill: #2a66b0;
      }

      .cls-2 {
        fill: #808081;
      }
    </style>
  </defs>
  <g>
    <path class="cls-1" d="M380.87,457.44c5.54,0,9.09-1.04,10.82-3.03,1.73-1.9,2.51-4.85,2.51-8.57v-69.18c0-3.98-.87-6.49-2.77-7.79s-5.2-2.08-10.13-2.42v-3.72h36.63l28.66,67.36h1.21l28.4-67.36h36.71v3.72c-4.94.43-8.31,1.3-10.13,2.68-1.82,1.39-2.68,5.02-2.68,10.65v64.42c0,5.28.87,8.83,2.68,10.48s5.2,2.6,10.13,2.77v3.72h-48.4v-3.72c4.33-.09,7.62-.87,9.7-2.16,2.16-1.3,3.29-4.24,3.29-8.49v-71.09h-1.13l-35.67,85.63h-3.9l-36.02-83.9h-.61v65.8c0,4.85.87,8.4,2.68,10.65s5.8,3.46,11.95,3.72v3.72h-34.03v-3.72h0l.09-.17Z"/>
    <path class="cls-1" d="M518.62,457.61c2.6-.43,4.33-1.13,5.2-1.9,1.39-1.3,2.08-3.64,2.08-6.93v-42.77c0-3.03-.52-5.02-1.47-5.97s-3.03-1.9-5.89-2.42v-3.46h27.97v55.24c0,3.2.52,5.2,1.39,6.15s2.68,1.65,5.28,2.08v3.46h-34.63v-3.46h.09ZM528.41,363.75c2.16-2.16,4.94-3.29,8.05-3.29s5.71,1.13,7.88,3.29,3.29,4.94,3.29,8.05-1.13,5.8-3.29,8.05-4.85,3.29-7.88,3.29-5.8-1.13-8.05-3.29c-2.16-2.16-3.29-4.94-3.29-8.05s1.13-5.8,3.29-8.05Z"/>
    <path class="cls-1" d="M559.14,457.61c2.6-.26,4.59-1.04,5.89-2.16,1.21-1.13,1.9-3.29,1.9-6.58v-42.77c0-3.03-.52-5.02-1.47-6.23-1.04-1.13-3.12-1.9-6.23-2.34v-3.46h27.53v10.39c2.34-3.46,5.28-6.41,8.83-8.75,3.64-2.34,7.53-3.38,11.95-3.38s11.08,1.65,14.55,4.85c3.38,3.2,5.11,8.92,5.11,17.06v35.15c0,3.29.61,5.37,1.73,6.32s3.03,1.65,5.63,1.9v3.46h-34.11v-3.46c2.6-.52,4.42-1.21,5.28-2.08s1.39-2.94,1.39-6.15v-35.24c0-3.29-.26-5.8-1.04-7.53-1.13-3.03-3.38-4.5-6.67-4.5s-4.85.87-6.93,2.68-3.72,3.72-4.94,5.54v38.96c0,3.2.52,5.2,1.39,6.15s2.68,1.65,5.28,2.08v3.46h-35.07v-3.46h0v.17-.09Z"/>
    <path class="cls-1" d="M640.02,400.47v-3.98c1.3-1.21,2.94-2.6,4.85-4.24,2.51-2.34,4.94-4.68,7.1-7.19,4.42-4.85,8.4-10.04,12.04-15.5h3.72v24.59h13.85v6.41h-13.85v43.73c0,1.99.26,3.72.87,5.11,1.04,2.08,2.51,3.2,4.68,3.2s3.46-.69,4.85-1.99,2.6-3.2,3.81-5.63l3.46,1.73c-1.73,3.98-3.72,7.19-6.15,9.7-4.24,4.42-9.18,6.58-15.24,6.58s-6.41-.61-8.92-1.9c-4.94-2.51-7.45-6.93-7.45-13.42v-47.19h-7.71.09Z"/>
    <path class="cls-1" d="M698.29,401.68c5.97-6.23,13.07-9.35,21.56-9.35s9.35,1.3,13.51,3.81,7.53,5.97,9.7,10.39c1.73,3.38,2.94,7.71,3.46,13.07.26,2.51.52,4.42.52,5.8h-37.15c.26,5.8,1.3,10.91,2.77,15.15,2.94,8.05,7.88,12.04,14.98,12.04s6.58-1.13,9.7-3.2c1.9-1.3,4.07-3.38,6.93-6.49l3.29,2.08c-4.5,7.45-9.7,12.55-15.59,15.41-3.81,1.82-8.23,2.77-13.25,2.77-7.1,0-13.94-2.77-20.09-8.4-6.23-5.63-9.44-14.63-9.44-27.01s3.03-19.83,8.92-26.06h.17ZM729.2,420.03c0-8.57-.78-14.55-1.99-18.01-1.21-3.38-3.72-5.11-7.45-5.11s-6.41,1.99-7.79,5.89-2.16,9.7-2.42,17.23h19.65,0Z"/>
    <path class="cls-1" d="M752.75,457.7c2.42-.43,4.5-1.21,6.23-2.34,1.73-1.21,4.42-3.9,7.88-8.23,1.47-1.82,3.38-4.33,5.8-7.53,2.42-3.2,4.42-5.8,5.97-7.79l-18.7-28.66c-1.47-2.34-2.68-3.81-3.64-4.33s-2.16-1.04-3.98-1.21v-3.46h36.37v3.46c-3.38.52-5.28.78-5.89,1.04-.61.17-.87.78-.87,1.73s1.21,3.64,3.64,7.45c2.42,3.81,4.59,7.01,6.41,9.52,5.02-6.32,8.14-10.3,9.35-12.04s1.82-3.12,1.82-4.33-.61-2.34-1.73-2.68c-1.21-.43-3.12-.61-5.71-.69v-3.46h24.42v3.46c-1.82.26-3.29.69-4.42,1.21-2.16,1.04-3.98,2.42-5.63,4.33l-14.98,18.53,21.73,33.08c.52.78,1.13,1.39,1.73,1.82s1.47.78,2.6,1.21v3.29h-35.07v-3.29c1.99,0,3.64-.26,4.85-.69,1.21-.43,1.82-1.21,1.82-2.42s-.52-2.08-1.47-3.9c-.61-1.13-1.47-2.6-2.77-4.59-.69-1.13-1.73-2.6-3.03-4.59s-2.51-3.72-3.64-5.37c-3.12,3.98-5.37,7.01-7.01,9.18-3.2,4.5-4.85,7.27-4.85,8.57s.61,2.51,1.82,3.03,3.03.78,5.37.78v3.29h-24.5v-3.29h.17l-.09-.09Z"/>
    <path class="cls-2" d="M893.62,365.4c5.54,1.65,8.57,2.34,9.35,2.34,1.39,0,2.68-.43,3.9-1.13,1.21-.78,2.08-1.9,2.51-3.46h3.03l1.3,32.73h-3.29c-1.9-6.49-4.5-11.69-7.62-15.76-5.97-7.53-14.03-11.26-24.16-11.26s-18.53,3.98-25.02,12.12c-6.49,8.05-9.7,19.14-9.7,33.25s3.38,23.29,10.22,31.08c6.84,7.71,15.41,11.6,25.8,11.6s14.55-1.82,20.87-5.37c3.72-1.99,7.62-5.11,12.04-9.18l2.68,2.68c-3.2,4.07-7.19,7.62-12.04,10.74-8.14,5.2-17.06,7.79-26.5,7.79-15.59,0-28.05-5.02-37.23-14.98-8.49-9.18-12.73-20.87-12.73-34.63s4.5-26.06,13.42-35.67c9.44-10.13,21.73-15.15,36.89-15.15s10.65.78,16.19,2.34h.17l-.09-.09Z"/>
    <path class="cls-2" d="M936.31,429.73c4.33-2.77,12.99-6.67,26.06-11.6v-5.97c0-4.85-.52-8.23-1.39-10.13-1.65-3.2-4.94-4.85-10.04-4.85s-4.68.61-6.93,1.82c-2.16,1.3-3.29,3.03-3.29,5.2s.09,1.47.43,2.94c.17,1.3.26,2.16.26,2.6,0,2.68-.87,4.5-2.6,5.54-1.04.61-2.16.87-3.46.87-2.08,0-3.81-.69-4.94-2.08-1.13-1.39-1.73-2.94-1.73-4.68,0-3.29,1.99-6.84,6.15-10.39,4.16-3.55,10.13-5.37,18.01-5.37s15.41,3.03,18.7,8.92c1.82,3.29,2.6,8.05,2.6,14.29v28.57c0,2.77.17,4.59.61,5.71.61,1.82,1.9,2.77,3.81,2.77s1.99-.17,2.68-.52,1.9-1.13,3.72-2.42v3.72c-1.47,1.82-3.2,3.38-4.94,4.5-2.68,1.82-5.28,2.68-8.14,2.68s-5.54-1.04-7.01-3.12-2.16-4.59-2.42-7.53c-3.64,3.12-6.67,5.37-9.18,7.01-4.33,2.6-8.4,3.81-12.3,3.81s-7.62-1.39-10.65-4.33c-3.03-2.94-4.5-6.49-4.5-10.91,0-6.93,3.38-12.64,10.3-17.23h0v.17h.17ZM962.37,421.77c-5.37,1.82-9.87,3.81-13.51,5.97-6.84,4.24-10.22,9-10.22,14.29s1.39,7.53,4.33,9.52c1.82,1.3,3.9,1.99,6.23,1.99s6.15-.87,9-2.6c2.94-1.82,4.33-3.98,4.33-6.67v-22.51h-.17Z"/>
    <path class="cls-2" d="M985.84,458.74c4.33-.43,7.19-1.21,8.75-2.34s2.08-3.64,2.08-7.45v-32.04c0-4.68-.43-8.05-1.3-10.04s-2.51-3.03-4.85-3.03-1.13,0-1.9.17-1.65.26-2.51.52v-2.34c2.68-1.04,5.54-1.9,8.31-2.94,2.77-1.04,4.85-1.73,5.89-2.08,2.42-.87,4.85-1.9,7.27-3.03.26,0,.52.09.61.26,0,.17.09.69.09,1.47v11.6c3.03-4.24,5.97-7.53,8.83-9.87s5.8-3.46,8.83-3.46,4.42.69,5.89,2.16c1.47,1.39,2.34,3.2,2.34,5.37s-.61,3.64-1.73,4.94-2.6,1.99-4.42,1.99-3.64-.78-5.37-2.51-3.2-2.51-4.33-2.51c-1.73,0-3.72,1.3-6.15,3.98s-3.64,5.37-3.64,8.31v32.04c0,4.07,1.04,6.93,2.77,8.49,1.9,1.65,5.02,2.34,9.44,2.16v2.34h-35.07v-2.34h0v-.17l.17.35Z"/>
    <path class="cls-2" d="M1084.63,401.33c5.02,4.59,7.53,11.26,7.53,19.65h-45.2c.52,11,3.03,18.96,7.53,23.9s9.78,7.53,16.02,7.53,9.18-1.3,12.64-3.9c3.46-2.6,6.49-6.32,9.44-11l2.51.78c-1.9,5.97-5.63,11.6-10.91,16.71-5.28,5.11-11.78,7.71-19.65,7.71s-15.85-3.38-20.61-10.13c-4.85-6.67-7.27-14.55-7.27-23.2s2.77-17.75,8.49-24.59c5.63-6.93,12.99-10.39,21.99-10.39s12.55,2.34,17.49,6.93h0ZM1050.52,406.87c-1.47,2.51-2.6,5.8-3.29,9.7h30.05c-.52-4.68-1.39-8.31-2.68-10.65-2.34-4.24-6.23-6.23-11.6-6.23s-9.52,2.42-12.3,7.19h-.17Z"/>
  </g>
  <g>
    <path class="cls-2" d="M284.7,364.31c-5.25,0-9.4-4.25-9.35-9.4.05-5.3,4.29-9.35,9.69-9.35s9.16,4.39,9.11,9.45c-.1,5.2-4.25,9.3-9.4,9.26h0l-.05.05Z"/>
    <g>
      <path class="cls-1" d="M250.63,341.07c2,.52,3.63,1.62,5.2,2.86,3.1,2.48,5.73,5.49,8.4,8.45,3.86,4.29,7.54,8.78,11.88,12.6,2.29,2,4.77,3.82,7.68,4.87.62.24,1.19.24,1.81,0,2.86-1.05,5.3-2.77,7.59-4.77,3.63-3.15,6.68-6.78,9.92-10.31,3.01-3.29,6.11-6.58,9.26-9.73s3.67-3.1,5.96-3.96c.1,0,.24-.1.48-.19-.95,1-1.91,1.91-2.72,2.86-2.62,3.1-4.82,6.54-6.78,10.12-4.58,8.21-8.35,16.75-11.21,25.72-1.72,5.54-2.05,11.07-1.19,16.75.76,4.87,1.53,9.73,2.29,14.55.05.33,0,.81-.24,1.05-4.68,5.15-9.4,10.26-14.08,15.36,0,0-.1,0-.19.1-1.72-1.86-3.44-3.72-5.15-5.58-2.96-3.24-5.92-6.44-8.88-9.69-.43-.43-.52-.86-.38-1.43,1.34-6.78,2.43-13.6,2.82-20.52.14-3.05-.43-6.01-1.29-8.88-3.58-12.36-8.92-23.95-16.18-34.59-.72-1.05-1.48-2.05-2.34-3.01-.81-.91-1.77-1.72-2.62-2.62h-.05Z"/>
      <path class="cls-1" d="M368.87,348.9h-15.89c-.33,0-.76-.19-1-.43-21.81-21.76-43.61-43.56-65.37-65.37-.19-.19-.33-.48-.57-.81-.86.91-1.53,1.62-2.24,2.34-18.23,18.23-36.45,36.41-54.63,54.63-4.44,4.44-8.88,8.88-13.36,13.31-.38.38-.57.76-.57,1.29v105.83h38.46c.1-.86.14-1.67.24-2.48.19-1.48.38-2.96.52-4.49,0-.29-.1-.67-.29-.91-5.58-7.97-11.17-15.98-16.75-23.91-.38-.52-.48-.95-.14-1.57,6.49-12.74,12.98-25.48,19.47-38.22.52-1.05,1.1-2.1,1.67-3.24,1.34.91,2.19,2.15,2.77,3.58,1,2.53.91,5.11.52,7.73-.43,3.15-1.77,6.01-2.82,8.92-2.24,6.25-4.53,12.5-6.78,18.8-.1.29,0,.76.14,1.05,2.86,4.29,5.82,8.59,8.64,12.88.62.95,1.05,2,1.48,3.05.95,2.34,1.81,4.72,2.86,7.06-.1-.95-.19-1.91-.29-2.86-.24-2.48-.52-5.01-.76-7.49,0-.33-.14-.72-.33-1-2.53-4.1-5.06-8.25-7.63-12.36-.38-.57-.38-1.1-.14-1.72,1-2.67,1.96-5.34,2.91-8.02.1-.24.19-.48.24-.57,2,1.91,4.01,3.82,5.96,5.77,4.91,4.96,9.83,9.97,14.74,14.93.67.67,1,1.38,1.05,2.39.19,5.77.48,11.55.72,17.32.05,1.77,0,3.58,0,5.39h8.54v-1.91c.29-7.25.57-14.51.91-21.76,0-.29.19-.57.38-.76,6.3-6.44,12.6-12.84,18.94-19.23.76-.76,1.53-1.48,2.34-2.29.48,1.34.95,2.62,1.43,3.96.62,1.72,1.29,3.39,1.86,5.11.1.33.1.86-.1,1.15-2.58,4.2-5.15,8.4-7.73,12.6-.14.24-.29.52-.33.76-.38,3.53-.72,7.11-.95,10.69.05-.14.14-.29.19-.38.95-2.53,1.81-5.15,2.91-7.63.76-1.67,1.81-3.24,2.86-4.77,2.29-3.44,4.58-6.82,6.92-10.26.29-.43.29-.76.1-1.24-2.82-7.78-5.68-15.56-8.49-23.33-1.24-3.44-1.77-6.97-.95-10.64.48-2.15,1.67-3.96,3.2-4.87,2.15,4.2,4.25,8.35,6.35,12.5,4.91,9.64,9.78,19.32,14.74,28.92.29.62.29,1-.1,1.53-5.58,7.97-11.17,15.89-16.7,23.86-.24.33-.38.86-.33,1.29.24,2.24.48,4.44.72,6.73h33.78v11.83h-148.78v-122.53c0-.52.14-.91.52-1.29,27.15-27.15,54.3-54.3,81.45-81.4.19-.19.33-.38.43-.52l83.12,83.12h0l-.05-.05Z"/>
    </g>
  </g>
</svg>