<?xml version="1.0" encoding="UTF-8"?>
<svg id="Layer_1" xmlns="http://www.w3.org/2000/svg" version="1.1" viewBox="0 0 1298.5 737.4">
  <!-- Generator: Adobe Illustrator 30.2.1, SVG Export Plug-In . SVG Version: 2.1.1 Build 1)  -->
  <defs>
    <style>
      .st0 {
        fill: none;
        stroke: #808081;
        stroke-miterlimit: 10;
        stroke-width: 2.3px;
      }

      .st1 {
        fill: #2a66b0;
      }

      .st2 {
        fill: #808081;
      }
    </style>
  </defs>
  <g>
    <path class="st1" d="M-733.1,652.4c5.5,0,9.1-1,10.8-3,1.7-1.9,2.5-4.8,2.5-8.6v-69.1c0-4-.9-6.5-2.8-7.8s-5.2-2.1-10.1-2.4v-3.7h36.6l28.6,67.3h1.2l28.4-67.3h36.7v3.7c-4.9.4-8.3,1.3-10.1,2.7s-2.7,5-2.7,10.6v64.3c0,5.3.9,8.8,2.7,10.5s5.2,2.6,10.1,2.8v3.7h-48.3v-3.7c4.3,0,7.6-.9,9.7-2.2,2.2-1.3,3.3-4.2,3.3-8.5v-71h-1.1l-35.6,85.5h-3.9l-36-83.8h-.6v65.7c0,4.8.9,8.4,2.7,10.6s5.8,3.5,11.9,3.7v3.7h-34v-3.7h0Z"/>
    <path class="st1" d="M-595.6,652.6c2.6-.4,4.3-1.1,5.2-1.9,1.4-1.3,2.1-3.6,2.1-6.9v-42.7c0-3-.5-5-1.5-6s-3-1.9-5.9-2.4v-3.5h27.9v55.2c0,3.2.5,5.2,1.4,6.1.9.9,2.7,1.6,5.3,2.1v3.5h-34.6v-3.5h0ZM-585.9,559c2.2-2.2,4.9-3.3,8-3.3s5.7,1.1,7.9,3.3,3.3,4.9,3.3,8-1.1,5.8-3.3,8-4.8,3.3-7.9,3.3-5.8-1.1-8-3.3-3.3-4.9-3.3-8,1.1-5.8,3.3-8Z"/>
    <path class="st1" d="M-555.2,652.6c2.6-.3,4.6-1,5.9-2.2,1.2-1.1,1.9-3.3,1.9-6.6v-42.7c0-3-.5-5-1.5-6.2-1-1.1-3.1-1.9-6.2-2.3v-3.5h27.5v10.4c2.3-3.5,5.3-6.4,8.8-8.7,3.6-2.3,7.5-3.4,11.9-3.4s11.1,1.6,14.5,4.8,5.1,8.9,5.1,17v35.1c0,3.3.6,5.4,1.7,6.3s3,1.6,5.6,1.9v3.5h-34.1v-3.5c2.6-.5,4.4-1.2,5.3-2.1.9-.9,1.4-2.9,1.4-6.1v-35.2c0-3.3-.3-5.8-1-7.5-1.1-3-3.4-4.5-6.7-4.5s-4.8.9-6.9,2.7-3.7,3.7-4.9,5.5v38.9c0,3.2.5,5.2,1.4,6.1.9.9,2.7,1.6,5.3,2.1v3.5h-35v-3.5h0v.2Z"/>
    <path class="st1" d="M-474.3,595.5v-4c1.3-1.2,2.9-2.6,4.8-4.2,2.5-2.3,4.9-4.7,7.1-7.2,4.4-4.8,8.4-10,12-15.5h3.7v24.6h13.8v6.4h-13.8v43.7c0,2,.3,3.7.9,5.1,1,2.1,2.5,3.2,4.7,3.2s3.5-.7,4.8-2,2.6-3.2,3.8-5.6l3.5,1.7c-1.7,4-3.7,7.2-6.1,9.7-4.2,4.4-9.2,6.6-15.2,6.6s-6.4-.6-8.9-1.9c-4.9-2.5-7.4-6.9-7.4-13.4v-47.1h-7.7Z"/>
    <path class="st1" d="M-416.2,596.7c6-6.2,13.1-9.3,21.5-9.3s9.3,1.3,13.5,3.8,7.5,6,9.7,10.4,2.9,7.7,3.5,13.1c.3,2.5.5,4.4.5,5.8h-37.1c.3,5.8,1.3,10.9,2.8,15.1,2.9,8,7.9,12,15,12s6.6-1.1,9.7-3.2c1.9-1.3,4.1-3.4,6.9-6.5l3.3,2.1c-4.5,7.4-9.7,12.5-15.6,15.4-3.8,1.8-8.2,2.8-13.2,2.8-7.1,0-13.9-2.8-20.1-8.4s-9.4-14.6-9.4-27,3-19.8,8.9-26h.1ZM-385.3,615.1c0-8.6-.8-14.5-2-18-1.2-3.4-3.7-5.1-7.4-5.1s-6.4,2-7.8,5.9-2.2,9.7-2.4,17.2h19.6,0Z"/>
    <path class="st1" d="M-361.8,652.8c2.4-.4,4.5-1.2,6.2-2.3,1.7-1.2,4.4-3.9,7.9-8.2,1.5-1.8,3.4-4.3,5.8-7.5s4.4-5.8,6-7.8l-18.7-28.6c-1.5-2.3-2.7-3.8-3.6-4.3s-2.2-1-4-1.2v-3.5h36.3v3.5c-3.4.5-5.3.8-5.9,1s-.9.8-.9,1.7,1.2,3.6,3.6,7.4,4.6,7,6.4,9.5c5-6.3,8.1-10.3,9.3-12,1.2-1.7,1.8-3.1,1.8-4.3s-.6-2.3-1.7-2.7c-1.2-.4-3.1-.6-5.7-.7v-3.5h24.4v3.5c-1.8.3-3.3.7-4.4,1.2-2.2,1-4,2.4-5.6,4.3l-15,18.5,21.7,33c.5.8,1.1,1.4,1.7,1.8s1.5.8,2.6,1.2v3.3h-35v-3.3c2,0,3.6-.3,4.8-.7,1.2-.4,1.8-1.2,1.8-2.4s-.5-2.1-1.5-3.9c-.6-1.1-1.5-2.6-2.8-4.6-.7-1.1-1.7-2.6-3-4.6s-2.5-3.7-3.6-5.4c-3.1,4-5.4,7-7,9.2-3.2,4.5-4.8,7.3-4.8,8.6s.6,2.5,1.8,3c1.2.5,3,.8,5.4.8v3.3h-24.5v-3.3h.2Z"/>
    <path class="st2" d="M-221.1,560.5c5.5,1.6,8.6,2.3,9.3,2.3,1.4,0,2.7-.4,3.9-1.1,1.2-.8,2.1-1.9,2.5-3.5h3l1.3,32.7h-3.3c-1.9-6.5-4.5-11.7-7.6-15.7-6-7.5-14-11.2-24.1-11.2s-18.5,4-25,12.1c-6.5,8-9.7,19.1-9.7,33.2s3.4,23.3,10.2,31c6.8,7.7,15.4,11.6,25.8,11.6s14.5-1.8,20.8-5.4c3.7-2,7.6-5.1,12-9.2l2.7,2.7c-3.2,4.1-7.2,7.6-12,10.7-8.1,5.2-17,7.8-26.5,7.8-15.6,0-28-5-37.2-15-8.5-9.2-12.7-20.8-12.7-34.6s4.5-26,13.4-35.6c9.4-10.1,21.7-15.1,36.8-15.1s10.6.8,16.2,2.3h.2Z"/>
    <path class="st2" d="M-178.5,624.8c4.3-2.8,13-6.7,26-11.6v-6c0-4.8-.5-8.2-1.4-10.1-1.6-3.2-4.9-4.8-10-4.8s-4.7.6-6.9,1.8c-2.2,1.3-3.3,3-3.3,5.2s.1,1.5.4,2.9c.2,1.3.3,2.2.3,2.6,0,2.7-.9,4.5-2.6,5.5-1,.6-2.2.9-3.5.9-2.1,0-3.8-.7-4.9-2.1-1.1-1.4-1.7-2.9-1.7-4.7,0-3.3,2-6.8,6.1-10.4s10.1-5.4,18-5.4,15.4,3,18.7,8.9c1.8,3.3,2.6,8,2.6,14.3v28.5c0,2.8.2,4.6.6,5.7.6,1.8,1.9,2.8,3.8,2.8s2-.2,2.7-.5,1.9-1.1,3.7-2.4v3.7c-1.5,1.8-3.2,3.4-4.9,4.5-2.7,1.8-5.3,2.7-8.1,2.7s-5.5-1-7-3.1-2.2-4.6-2.4-7.5c-3.6,3.1-6.7,5.4-9.2,7-4.3,2.6-8.4,3.8-12.3,3.8s-7.6-1.4-10.6-4.3-4.5-6.5-4.5-10.9c0-6.9,3.4-12.6,10.3-17.2h0v.2ZM-152.5,616.8c-5.4,1.8-9.9,3.8-13.5,6-6.8,4.2-10.2,9-10.2,14.3s1.4,7.5,4.3,9.5c1.8,1.3,3.9,2,6.2,2s6.1-.9,9-2.6c2.9-1.8,4.3-4,4.3-6.7v-22.5h-.1Z"/>
    <path class="st2" d="M-129,653.7c4.3-.4,7.2-1.2,8.7-2.3s2.1-3.6,2.1-7.4v-32c0-4.7-.4-8-1.3-10s-2.5-3-4.8-3-1.1,0-1.9.2-1.6.3-2.5.5v-2.3c2.7-1,5.5-1.9,8.3-2.9s4.8-1.7,5.9-2.1c2.4-.9,4.8-1.9,7.3-3,.3,0,.5,0,.6.3,0,.2,0,.7,0,1.5v11.6c3-4.2,6-7.5,8.8-9.9s5.8-3.5,8.8-3.5,4.4.7,5.9,2.2c1.5,1.4,2.3,3.2,2.3,5.4s-.6,3.6-1.7,4.9-2.6,2-4.4,2-3.6-.8-5.4-2.5-3.2-2.5-4.3-2.5c-1.7,0-3.7,1.3-6.1,4s-3.6,5.4-3.6,8.3v32c0,4.1,1,6.9,2.8,8.5,1.9,1.6,5,2.3,9.4,2.2v2.3h-35v-2.3h0v-.2Z"/>
    <path class="st2" d="M-30.4,596.4c5,4.6,7.5,11.2,7.5,19.6h-45.1c.5,11,3,18.9,7.5,23.9s9.8,7.5,16,7.5,9.2-1.3,12.6-3.9c3.4-2.6,6.5-6.3,9.4-11l2.5.8c-1.9,6-5.6,11.6-10.9,16.7-5.3,5.1-11.8,7.7-19.6,7.7s-15.8-3.4-20.6-10.1c-4.8-6.7-7.3-14.5-7.3-23.2s2.8-17.7,8.5-24.6c5.6-6.9,13-10.4,22-10.4s12.5,2.3,17.5,6.9h0ZM-64.4,601.9c-1.5,2.5-2.6,5.8-3.3,9.7h30c-.5-4.7-1.4-8.3-2.7-10.6-2.3-4.2-6.2-6.2-11.6-6.2s-9.5,2.4-12.3,7.2h0Z"/>
  </g>
  <g>
    <g>
      <path class="st1" d="M-450.1,222.4c4.2,1.1,7.6,3.4,10.9,6,6.5,5.2,12,11.5,17.6,17.7,8.1,9,15.8,18.4,24.9,26.4,4.8,4.2,10,8,16.1,10.2,1.3.5,2.5.5,3.8,0,6-2.2,11.1-5.8,15.9-10,7.6-6.6,14-14.2,20.8-21.6,6.3-6.9,12.8-13.8,19.4-20.4,3.6-3.6,7.7-6.5,12.5-8.3.2,0,.5-.2,1-.4-2,2.1-4,4-5.7,6-5.5,6.5-10.1,13.7-14.2,21.2-9.6,17.2-17.5,35.1-23.5,53.9-3.6,11.6-4.3,23.2-2.5,35.1,1.6,10.2,3.2,20.4,4.8,30.5.1.7,0,1.7-.5,2.2-9.8,10.8-19.7,21.5-29.5,32.2,0,0-.2.1-.4.2-3.6-3.9-7.2-7.8-10.8-11.7-6.2-6.8-12.4-13.5-18.6-20.3-.9-.9-1.1-1.8-.8-3,2.8-14.2,5.1-28.5,5.9-43,.3-6.4-.9-12.6-2.7-18.6-7.5-25.9-18.7-50.2-33.9-72.5-1.5-2.2-3.1-4.3-4.9-6.3-1.7-1.9-3.7-3.6-5.5-5.5h0Z"/>
      <path class="st1" d="M-202.2,238.8h-33.3c-.7,0-1.6-.4-2.1-.9-45.7-45.6-91.4-91.3-137-137-.4-.4-.7-1-1.2-1.7-1.8,1.9-3.2,3.4-4.7,4.9-38.2,38.2-76.4,76.3-114.5,114.5-9.3,9.3-18.6,18.6-28,27.9-.8.8-1.2,1.6-1.2,2.7v221.8h80.6c.2-1.8.3-3.5.5-5.2.4-3.1.8-6.2,1.1-9.4,0-.6-.2-1.4-.6-1.9-11.7-16.7-23.4-33.5-35.1-50.1-.8-1.1-1-2-.3-3.3,13.6-26.7,27.2-53.4,40.8-80.1,1.1-2.2,2.3-4.4,3.5-6.8,2.8,1.9,4.6,4.5,5.8,7.5,2.1,5.3,1.9,10.7,1.1,16.2-.9,6.6-3.7,12.6-5.9,18.7-4.7,13.1-9.5,26.2-14.2,39.4-.2.6,0,1.6.3,2.2,6,9,12.2,18,18.1,27,1.3,2,2.2,4.2,3.1,6.4,2,4.9,3.8,9.9,6,14.8-.2-2-.4-4-.6-6-.5-5.2-1.1-10.5-1.6-15.7,0-.7-.3-1.5-.7-2.1-5.3-8.6-10.6-17.3-16-25.9-.8-1.2-.8-2.3-.3-3.6,2.1-5.6,4.1-11.2,6.1-16.8.2-.5.4-1,.5-1.2,4.2,4,8.4,8,12.5,12.1,10.3,10.4,20.6,20.9,30.9,31.3,1.4,1.4,2.1,2.9,2.2,5,.4,12.1,1,24.2,1.5,36.3.1,3.7,0,7.5,0,11.3h17.9v-4c.6-15.2,1.2-30.4,1.9-45.6,0-.6.4-1.2.8-1.6,13.2-13.5,26.4-26.9,39.7-40.3,1.6-1.6,3.2-3.1,4.9-4.8,1,2.8,2,5.5,3,8.3,1.3,3.6,2.7,7.1,3.9,10.7.2.7.2,1.8-.2,2.4-5.4,8.8-10.8,17.6-16.2,26.4-.3.5-.6,1.1-.7,1.6-.8,7.4-1.5,14.9-2,22.4.1-.3.3-.6.4-.8,2-5.3,3.8-10.8,6.1-16,1.6-3.5,3.8-6.8,6-10,4.8-7.2,9.6-14.3,14.5-21.5.6-.9.6-1.6.2-2.6-5.9-16.3-11.9-32.6-17.8-48.9-2.6-7.2-3.7-14.6-2-22.3,1-4.5,3.5-8.3,6.7-10.2,4.5,8.8,8.9,17.5,13.3,26.2,10.3,20.2,20.5,40.5,30.9,60.6.6,1.3.6,2.1-.2,3.2-11.7,16.7-23.4,33.3-35,50-.5.7-.8,1.8-.7,2.7.5,4.7,1,9.3,1.5,14.1h70.8v24.8h-311.6V239.1c0-1.1.3-1.9,1.1-2.7,56.9-56.9,113.8-113.8,170.7-170.6.4-.4.7-.8.9-1.1l174.2,174.2h-.3Z"/>
    </g>
    <g>
      <path class="st2" d="M-378.7,271.1c-11,0-19.7-8.9-19.6-19.7.1-11.1,9-19.6,20.3-19.6s19.2,9.2,19.1,19.8c-.2,10.9-8.9,19.5-19.7,19.4h0Z"/>
      <path class="st2" d="M-375,34.4c-.7-.7-1.2-.7-1.9,0-5.5,5.5-11,11-16.5,16.4-4.3,4.2-8.6,8.4-12.8,12.7-5.3,5.3-10.5,10.6-15.8,15.9-7,7.1-14.1,14.1-21.2,21.2-8.8,8.8-17.6,17.6-26.4,26.4-11.9,11.9-23.9,23.8-35.8,35.8-11.9,12-20,20-30,30s-16.7,16.7-25,25-12.9,12.9-19.4,19.3c-.7.7-1.7,1-2.7,1.3-.6.2-1.4.1-2.1.1h-29.8C-534.9,159.2-455.4,79.7-375.8,0c19.8,19.9,39.8,39.9,59.7,59.9.2,0,.4-.2.6-.2.4-6.7.1-13.3.2-20v-20.1h52.1c1.5,0,2.2.7,2.2,2.2v90.8c0,1.6.5,2.8,1.6,3.9,8.5,8.5,17,17,25.5,25.5s4.5,4.9,6.8,7.2c1.5,1.6,3.3,2.9,4.9,4.4,28,27.9,55.9,55.9,83.8,83.8s.6.6,1,1.1c-.6,0-1,.1-1.5.1h-30.3c-1,0-2.2-.5-2.8-1.2L-375,34.4Z"/>
    </g>
  </g>
  <g>
    <g>
      <path class="st2" d="M-621.9,703.9c1.3-2.3,3.1-4.1,5.3-5.4,2.2-1.3,4.7-2,7.5-2s6,.8,8.4,2.3,4.1,3.8,5.3,6.6h-4.6c-.8-1.8-2-3.2-3.5-4.1-1.5-1-3.4-1.4-5.5-1.4s-3.9.5-5.6,1.4-2.9,2.3-3.9,4.1-1.4,3.8-1.4,6.2.5,4.4,1.4,6.2,2.2,3.1,3.9,4.1,3.5,1.4,5.6,1.4,4-.5,5.5-1.4,2.7-2.3,3.5-4.1h4.6c-1.1,2.8-2.9,5-5.3,6.5-2.4,1.5-5.2,2.3-8.4,2.3s-5.2-.6-7.5-1.9-4-3.1-5.3-5.4c-1.3-2.3-1.9-4.9-1.9-7.8s.7-5.5,1.9-7.8h0v.2Z"/>
      <path class="st2" d="M-589.6,708.5c1-1.8,2.3-3.2,4-4.2s3.6-1.5,5.6-1.5,3.8.4,5.3,1.3c1.5.9,2.6,2,3.4,3.3v-4.2h3.9v23.2h-3.9v-4.3c-.8,1.4-1.9,2.5-3.4,3.4s-3.3,1.3-5.3,1.3-3.9-.5-5.6-1.5c-1.7-1-3-2.4-3.9-4.3s-1.4-3.9-1.4-6.3.5-4.5,1.4-6.2h0ZM-572.5,710.2c-.7-1.3-1.7-2.3-2.9-3s-2.5-1-4-1-2.8.3-3.9,1-2.1,1.7-2.8,3-1.1,2.8-1.1,4.6.4,3.3,1.1,4.6c.7,1.3,1.7,2.3,2.8,3,1.2.7,2.5,1,3.9,1s2.8-.3,4-1,2.1-1.7,2.9-3,1.1-2.8,1.1-4.6-.4-3.3-1.1-4.6h0Z"/>
      <path class="st2" d="M-554.2,703.9c1.3-.7,2.8-1.1,4.6-1.1v4h-1c-4.3,0-6.5,2.3-6.5,7v12.6h-3.9v-23.2h3.9v3.8c.7-1.3,1.6-2.4,2.9-3.1h0Z"/>
      <path class="st2" d="M-524.1,716.3h-18.6c0,2.3.9,4.1,2.4,5.4,1.4,1.3,3.2,1.9,5.2,1.9s3.1-.4,4.2-1.2c1.1-.8,1.9-1.8,2.4-3.1h4.2c-.6,2.2-1.9,4-3.7,5.5-1.9,1.4-4.2,2.1-6.9,2.1s-4.2-.5-5.9-1.5-3.1-2.4-4.1-4.2-1.5-3.9-1.5-6.3.5-4.5,1.4-6.3,2.3-3.2,4.1-4.2c1.7-1,3.7-1.5,6-1.5s4.1.5,5.9,1.4c1.7,1,3,2.3,3.9,4s1.4,3.6,1.4,5.7,0,1.5,0,2.3h-.3ZM-528.9,709.3c-.6-1.1-1.5-1.9-2.6-2.4s-2.4-.8-3.7-.8c-1.9,0-3.6.6-5,1.9s-2.2,3-2.4,5.2h14.7c0-1.5-.3-2.7-1-3.8h0Z"/>
      <path class="st2" d="M-487.6,703.2l-14,34.2h-4l4.6-11.2-9.4-23h4.3l7.3,18.8,7.2-18.8h4Z"/>
      <path class="st2" d="M-479.5,725.3c-1.8-1-3.1-2.4-4.2-4.2-1-1.8-1.5-3.9-1.5-6.3s.5-4.5,1.6-6.3,2.4-3.2,4.2-4.2c1.8-1,3.8-1.5,6-1.5s4.2.5,6,1.5,3.2,2.4,4.2,4.2,1.5,3.9,1.5,6.3-.5,4.5-1.6,6.3-2.5,3.2-4.3,4.2-3.8,1.5-6,1.5-4.1-.5-5.9-1.5h0ZM-469.7,722.5c1.2-.7,2.2-1.6,3-2.9s1.1-2.9,1.1-4.8-.4-3.5-1.1-4.8-1.7-2.3-2.9-2.9c-1.2-.6-2.5-1-3.9-1s-2.7.3-3.9,1-2.1,1.6-2.8,2.9-1.1,2.9-1.1,4.8.4,3.5,1,4.8c.7,1.3,1.6,2.3,2.8,2.9,1.2.6,2.4,1,3.8,1s2.7-.3,3.9-1h.1Z"/>
      <path class="st2" d="M-436,703.2v23.2h-3.9v-3.4c-.7,1.2-1.8,2.1-3.1,2.8-1.3.7-2.8,1-4.3,1s-3.4-.4-4.9-1.1-2.6-1.9-3.4-3.4-1.2-3.3-1.2-5.5v-13.6h3.8v13.1c0,2.3.6,4,1.7,5.3,1.2,1.2,2.7,1.8,4.8,1.8s3.7-.6,4.9-1.9c1.2-1.3,1.8-3.1,1.8-5.6v-12.8h3.9,0Z"/>
      <path class="st2" d="M-418.1,708.5c1-1.8,2.3-3.2,4-4.2s3.7-1.5,5.9-1.5,5.2.7,7.1,2.1,3.1,3.3,3.7,5.8h-4.2c-.4-1.4-1.2-2.5-2.3-3.3s-2.6-1.2-4.3-1.2-4,.8-5.3,2.3-2,3.7-2,6.4.7,5,2,6.5c1.4,1.5,3.1,2.3,5.3,2.3s3.1-.4,4.2-1.2,1.9-1.9,2.3-3.4h4.2c-.6,2.4-1.9,4.3-3.7,5.7-1.9,1.4-4.2,2.1-7,2.1s-4.2-.5-5.9-1.5-3-2.4-4-4.2-1.4-3.9-1.4-6.4.5-4.5,1.4-6.3h0Z"/>
      <path class="st2" d="M-392.4,708.5c1-1.8,2.3-3.2,4-4.2s3.5-1.5,5.6-1.5,3.8.4,5.3,1.3c1.5.9,2.6,2,3.4,3.3v-4.2h3.9v23.2h-3.9v-4.3c-.8,1.4-1.9,2.5-3.4,3.4s-3.3,1.3-5.3,1.3-3.9-.5-5.6-1.5-3-2.4-4-4.3c-1-1.8-1.4-3.9-1.4-6.3s.5-4.5,1.4-6.2h0ZM-375.2,710.2c-.7-1.3-1.7-2.3-2.9-3-1.2-.7-2.5-1-4-1s-2.8.3-3.9,1-2.1,1.7-2.8,3c-.7,1.3-1.1,2.8-1.1,4.6s.4,3.3,1.1,4.6,1.7,2.3,2.8,3c1.2.7,2.5,1,3.9,1s2.8-.3,4-1,2.1-1.7,2.9-3,1.1-2.8,1.1-4.6-.4-3.3-1.1-4.6h0Z"/>
      <path class="st2" d="M-345.5,705.3c1.8,1.7,2.6,4.2,2.6,7.4v13.7h-3.8v-13.1c0-2.3-.6-4.1-1.7-5.3s-2.7-1.8-4.8-1.8-3.6.6-4.9,1.9c-1.2,1.3-1.8,3.1-1.8,5.5v12.8h-3.9v-23.2h3.9v3.3c.8-1.2,1.8-2.1,3.1-2.8,1.3-.7,2.8-1,4.3-1,2.8,0,5.1.8,6.9,2.6h0Z"/>
      <path class="st2" d="M-317.9,704.1c1.5-.9,3.3-1.3,5.2-1.3s4,.5,5.6,1.5,3,2.4,3.9,4.2c1,1.8,1.4,3.9,1.4,6.2s-.5,4.4-1.4,6.3-2.3,3.3-4,4.3-3.6,1.5-5.6,1.5-3.8-.4-5.3-1.3c-1.5-.9-2.6-2-3.4-3.3v4.3h-3.9v-31.4h3.9v12.5c.8-1.4,2-2.5,3.5-3.4h0ZM-306.7,710.2c-.7-1.3-1.7-2.3-2.9-3-1.2-.7-2.5-1-4-1s-2.7.3-3.9,1-2.2,1.7-2.9,3-1.1,2.8-1.1,4.6.4,3.3,1.1,4.6,1.7,2.3,2.9,3,2.5,1,3.9,1,2.8-.3,4-1,2.1-1.7,2.9-3c.7-1.3,1.1-2.9,1.1-4.6s-.4-3.3-1.1-4.6h0Z"/>
      <path class="st2" d="M-275.5,716.3h-18.6c.1,2.3.9,4.1,2.4,5.4s3.2,1.9,5.2,1.9,3.1-.4,4.2-1.2,1.9-1.8,2.4-3.1h4.2c-.6,2.2-1.9,4-3.7,5.5-1.9,1.4-4.2,2.1-7,2.1s-4.2-.5-5.9-1.5-3.1-2.4-4.1-4.2-1.5-3.9-1.5-6.3.5-4.5,1.4-6.3,2.3-3.2,4-4.2,3.7-1.5,6-1.5,4.1.5,5.9,1.4,3,2.3,3.9,4,1.4,3.6,1.4,5.7,0,1.5-.1,2.3h0ZM-280.4,709.3c-.6-1.1-1.5-1.9-2.6-2.4s-2.4-.8-3.7-.8c-2,0-3.6.6-5,1.9-1.4,1.2-2.2,3-2.4,5.2h14.7c0-1.5-.3-2.7-1-3.8h0Z"/>
      <path class="st2" d="M-266.5,695.1v31.4h-3.9v-31.4h3.9Z"/>
      <path class="st2" d="M-259.8,698.7c-.5-.5-.8-1.1-.8-1.9s.2-1.4.8-1.9,1.1-.8,1.9-.8,1.3.2,1.8.8.7,1.1.7,1.9-.2,1.4-.7,1.9-1.1.8-1.8.8-1.4-.2-1.9-.8ZM-256,703.2v23.2h-3.9v-23.2h3.9Z"/>
      <path class="st2" d="M-228.4,716.3h-18.6c.1,2.3.9,4.1,2.4,5.4s3.2,1.9,5.2,1.9,3.1-.4,4.2-1.2c1.1-.8,1.9-1.8,2.4-3.1h4.2c-.6,2.2-1.9,4-3.7,5.5-1.9,1.4-4.2,2.1-7,2.1s-4.2-.5-5.9-1.5-3.1-2.4-4.1-4.2-1.5-3.9-1.5-6.3.5-4.5,1.4-6.3,2.3-3.2,4-4.2,3.7-1.5,6-1.5,4.1.5,5.9,1.4,3,2.3,3.9,4,1.4,3.6,1.4,5.7,0,1.5-.1,2.3h0ZM-233.2,709.3c-.6-1.1-1.5-1.9-2.6-2.4s-2.4-.8-3.7-.8c-2,0-3.6.6-5,1.9-1.4,1.2-2.2,3-2.4,5.2h14.7c0-1.5-.3-2.7-1-3.8h0Z"/>
      <path class="st2" d="M-214.5,722.9l7.2-19.7h4.1l-9.1,23.2h-4.5l-9.1-23.2h4.1l7.3,19.7h0Z"/>
      <path class="st2" d="M-178.3,716.3h-18.6c.1,2.3.9,4.1,2.4,5.4s3.2,1.9,5.2,1.9,3.1-.4,4.2-1.2c1.1-.8,1.9-1.8,2.3-3.1h4.2c-.6,2.2-1.9,4-3.7,5.5-1.9,1.4-4.2,2.1-7,2.1s-4.2-.5-5.9-1.5-3.1-2.4-4.1-4.2-1.5-3.9-1.5-6.3.5-4.5,1.4-6.3,2.3-3.2,4-4.2,3.7-1.5,6-1.5,4.2.5,5.8,1.4c1.7,1,3,2.3,3.9,4s1.4,3.6,1.4,5.7,0,1.5-.1,2.3h.1ZM-183.2,709.3c-.7-1.1-1.5-1.9-2.7-2.4-1.1-.5-2.3-.8-3.7-.8-2,0-3.6.6-5,1.9s-2.2,3-2.4,5.2h14.7c0-1.5-.3-2.7-1-3.8h0Z"/>
      <path class="st2" d="M-161.7,698.7c-.5-.5-.8-1.1-.8-1.9s.2-1.4.8-1.9c.5-.5,1.1-.8,1.9-.8s1.3.2,1.8.8.7,1.1.7,1.9-.2,1.4-.7,1.9-1.1.8-1.8.8-1.4-.2-1.9-.8ZM-157.9,703.2v23.2h-3.9v-23.2h3.9Z"/>
      <path class="st2" d="M-133.2,705.3c1.8,1.7,2.6,4.2,2.6,7.4v13.7h-3.8v-13.1c0-2.3-.6-4.1-1.7-5.3s-2.7-1.8-4.8-1.8-3.7.6-4.8,1.9c-1.2,1.3-1.8,3.1-1.8,5.5v12.8h-3.9v-23.2h3.9v3.3c.8-1.2,1.8-2.1,3.1-2.8s2.8-1,4.3-1c2.8,0,5.1.8,6.9,2.6h0Z"/>
    </g>
    <line class="st0" x1="-112.8" y1="714.8" x2="-20" y2="714.8"/>
    <line class="st0" x1="-733.1" y1="714.8" x2="-640.4" y2="714.8"/>
  </g>
  <g>
    <g>
      <g>
        <path class="st1" d="M195.3,340.4c4.2,1.1,7.6,3.4,10.9,6,6.5,5.2,12,11.5,17.6,17.7,8.1,9,15.8,18.4,24.9,26.4,4.8,4.2,10,8,16.1,10.2,1.3.5,2.5.5,3.8,0,6-2.2,11.1-5.8,15.9-10,7.6-6.6,14-14.2,20.8-21.6,6.3-6.9,12.8-13.8,19.4-20.4s7.7-6.5,12.5-8.3c.2,0,.5-.2,1-.4-2,2.1-4,4-5.7,6-5.5,6.5-10.1,13.7-14.2,21.2-9.6,17.2-17.5,35.1-23.5,53.9-3.6,11.6-4.3,23.2-2.5,35.1,1.6,10.2,3.2,20.4,4.8,30.5.1.7,0,1.7-.5,2.2-9.8,10.8-19.7,21.5-29.5,32.2,0,0-.2,0-.4.2-3.6-3.9-7.2-7.8-10.8-11.7-6.2-6.8-12.4-13.5-18.6-20.3-.9-.9-1.1-1.8-.8-3,2.8-14.2,5.1-28.5,5.9-43,.3-6.4-.9-12.6-2.7-18.6-7.5-25.9-18.7-50.2-33.9-72.5-1.5-2.2-3.1-4.3-4.9-6.3-1.7-1.9-3.7-3.6-5.5-5.5h0Z"/>
        <path class="st1" d="M443.1,356.8h-33.3c-.7,0-1.6-.4-2.1-.9-45.7-45.6-91.4-91.3-137-137-.4-.4-.7-1-1.2-1.7-1.8,1.9-3.2,3.4-4.7,4.9-38.2,38.2-76.4,76.3-114.5,114.5-9.3,9.3-18.6,18.6-28,27.9-.8.8-1.2,1.6-1.2,2.7v221.8h80.6c.2-1.8.3-3.5.5-5.2.4-3.1.8-6.2,1.1-9.4,0-.6-.2-1.4-.6-1.9-11.7-16.7-23.4-33.5-35.1-50.1-.8-1.1-1-2-.3-3.3,13.6-26.7,27.2-53.4,40.8-80.1,1.1-2.2,2.3-4.4,3.5-6.8,2.8,1.9,4.6,4.5,5.8,7.5,2.1,5.3,1.9,10.7,1.1,16.2-.9,6.6-3.7,12.6-5.9,18.7-4.7,13.1-9.5,26.2-14.2,39.4-.2.6,0,1.6.3,2.2,6,9,12.2,18,18.1,27,1.3,2,2.2,4.2,3.1,6.4,2,4.9,3.8,9.9,6,14.8-.2-2-.4-4-.6-6-.5-5.2-1.1-10.5-1.6-15.7,0-.7-.3-1.5-.7-2.1-5.3-8.6-10.6-17.3-16-25.9-.8-1.2-.8-2.3-.3-3.6,2.1-5.6,4.1-11.2,6.1-16.8.2-.5.4-1,.5-1.2,4.2,4,8.4,8,12.5,12.1,10.3,10.4,20.6,20.9,30.9,31.3,1.4,1.4,2.1,2.9,2.2,5,.4,12.1,1,24.2,1.5,36.3.1,3.7,0,7.5,0,11.3h17.9v-4c.6-15.2,1.2-30.4,1.9-45.6,0-.6.4-1.2.8-1.6,13.2-13.5,26.4-26.9,39.7-40.3,1.6-1.6,3.2-3.1,4.9-4.8,1,2.8,2,5.5,3,8.3,1.3,3.6,2.7,7.1,3.9,10.7.2.7.2,1.8-.2,2.4-5.4,8.8-10.8,17.6-16.2,26.4-.3.5-.6,1.1-.7,1.6-.8,7.4-1.5,14.9-2,22.4.1-.3.3-.6.4-.8,2-5.3,3.8-10.8,6.1-16,1.6-3.5,3.8-6.8,6-10,4.8-7.2,9.6-14.3,14.5-21.5.6-.9.6-1.6.2-2.6-5.9-16.3-11.9-32.6-17.8-48.9-2.6-7.2-3.7-14.6-2-22.3,1-4.5,3.5-8.3,6.7-10.2,4.5,8.8,8.9,17.5,13.3,26.2,10.3,20.2,20.5,40.5,30.9,60.6.6,1.3.6,2.1-.2,3.2-11.7,16.7-23.4,33.3-35,50-.5.7-.8,1.8-.7,2.7.5,4.7,1,9.3,1.5,14.1h70.8v24.8H96.3v-256.8c0-1.1.3-1.9,1.1-2.7,56.9-56.9,113.8-113.8,170.7-170.6.4-.4.7-.8.9-1.1l174.2,174.2h0Z"/>
      </g>
      <g>
        <path class="st2" d="M266.7,389.1c-11,0-19.7-8.9-19.6-19.7.1-11.1,9-19.6,20.3-19.6s19.2,9.2,19.1,19.8c-.2,10.9-8.9,19.5-19.7,19.4h0Z"/>
        <path class="st2" d="M270.3,152.4c-.7-.7-1.2-.7-1.9,0-5.5,5.5-11,11-16.5,16.4-4.3,4.2-8.6,8.4-12.8,12.7-5.3,5.3-10.5,10.6-15.8,15.9-7,7.1-14.1,14.1-21.2,21.2l-26.4,26.4c-11.9,11.9-23.9,23.8-35.8,35.8s-20,20-30,30-16.7,16.7-25,25-12.9,12.9-19.4,19.3c-.7.7-1.7,1-2.7,1.3-.6.2-1.4.1-2.1.1h-29.8c79.5-79.5,158.9-159,238.6-238.7,19.8,19.9,39.8,39.9,59.7,59.9.2,0,.4-.2.6-.2.4-6.7.1-13.3.2-20v-20.1h52.1c1.5,0,2.2.7,2.2,2.2v90.8c0,1.6.5,2.8,1.6,3.9,8.5,8.5,17,17,25.5,25.5,2.3,2.3,4.5,4.9,6.8,7.2,1.5,1.6,3.3,2.9,4.9,4.4,28,27.9,55.9,55.9,83.8,83.8s.6.6,1,1.1c-.6,0-1,.1-1.5.1h-30.3c-1,0-2.2-.5-2.8-1.2l-203-203v.2Z"/>
      </g>
    </g>
    <g>
      <path class="st1" d="M442.8,510.3c6.4,0,10.5-1.2,12.5-3.5,2-2.2,2.9-5.6,2.9-9.9v-79.9c0-4.6-1-7.5-3.2-9s-6-2.4-11.7-2.8v-4.3h42.3l33.1,77.8h1.4l32.8-77.8h42.4v4.3c-5.7.5-9.6,1.5-11.7,3.1-2.1,1.6-3.1,5.8-3.1,12.3v74.4c0,6.1,1,10.2,3.1,12.1s6,3,11.7,3.2v4.3h-55.9v-4.3c5-.1,8.8-1,11.2-2.5,2.5-1.5,3.8-4.9,3.8-9.8v-82.1h-1.3l-41.2,98.9h-4.5l-41.6-96.9h-.7v76c0,5.6,1,9.7,3.1,12.3s6.7,4,13.8,4.3v4.3h-39.3v-4.3h0Z"/>
      <path class="st1" d="M601.9,510.5c3-.5,5-1.3,6-2.2,1.6-1.5,2.4-4.2,2.4-8v-49.4c0-3.5-.6-5.8-1.7-6.9s-3.5-2.2-6.8-2.8v-4h32.3v63.8c0,3.7.6,6,1.6,7.1s3.1,1.9,6.1,2.4v4h-40v-4h.1ZM613.2,402.1c2.5-2.5,5.7-3.8,9.3-3.8s6.6,1.3,9.1,3.8,3.8,5.7,3.8,9.3-1.3,6.7-3.8,9.3-5.6,3.8-9.1,3.8-6.7-1.3-9.3-3.8c-2.5-2.5-3.8-5.7-3.8-9.3s1.3-6.7,3.8-9.3Z"/>
      <path class="st1" d="M648.7,510.5c3-.3,5.3-1.2,6.8-2.5,1.4-1.3,2.2-3.8,2.2-7.6v-49.4c0-3.5-.6-5.8-1.7-7.2-1.2-1.3-3.6-2.2-7.2-2.7v-4h31.8v12c2.7-4,6.1-7.4,10.2-10.1,4.2-2.7,8.7-3.9,13.8-3.9s12.8,1.9,16.8,5.6c3.9,3.7,5.9,10.3,5.9,19.7v40.6c0,3.8.7,6.2,2,7.3s3.5,1.9,6.5,2.2v4h-39.4v-4c3-.6,5.1-1.4,6.1-2.4,1-1,1.6-3.4,1.6-7.1v-40.7c0-3.8-.3-6.7-1.2-8.7-1.3-3.5-3.9-5.2-7.7-5.2s-5.6,1-8,3.1-4.3,4.3-5.7,6.4v45c0,3.7.6,6,1.6,7.1s3.1,1.9,6.1,2.4v4h-40.5v-4h0v.2Z"/>
      <path class="st1" d="M742.1,444.5v-4.6c1.5-1.4,3.4-3,5.6-4.9,2.9-2.7,5.7-5.4,8.2-8.3,5.1-5.6,9.7-11.6,13.9-17.9h4.3v28.4h16v7.4h-16v50.5c0,2.3.3,4.3,1,5.9,1.2,2.4,2.9,3.7,5.4,3.7s4-.8,5.6-2.3,3-3.7,4.4-6.5l4,2c-2,4.6-4.3,8.3-7.1,11.2-4.9,5.1-10.6,7.6-17.6,7.6s-7.4-.7-10.3-2.2c-5.7-2.9-8.6-8-8.6-15.5v-54.5h-8.9Z"/>
      <path class="st1" d="M809.4,445.9c6.9-7.2,15.1-10.8,24.9-10.8s10.8,1.5,15.6,4.4,8.7,6.9,11.2,12c2,3.9,3.4,8.9,4,15.1.3,2.9.6,5.1.6,6.7h-42.9c.3,6.7,1.5,12.6,3.2,17.5,3.4,9.3,9.1,13.9,17.3,13.9s7.6-1.3,11.2-3.7c2.2-1.5,4.7-3.9,8-7.5l3.8,2.4c-5.2,8.6-11.2,14.5-18,17.8-4.4,2.1-9.5,3.2-15.3,3.2-8.2,0-16.1-3.2-23.2-9.7-7.2-6.5-10.9-16.9-10.9-31.2s3.5-22.9,10.3-30.1h.1ZM845.1,467.1c0-9.9-.9-16.8-2.3-20.8-1.4-3.9-4.3-5.9-8.6-5.9s-7.4,2.3-9,6.8-2.5,11.2-2.8,19.9h22.7Z"/>
      <path class="st1" d="M872.3,510.6c2.8-.5,5.2-1.4,7.2-2.7,2-1.4,5.1-4.5,9.1-9.5,1.7-2.1,3.9-5,6.7-8.7s5.1-6.7,6.9-9l-21.6-33.1c-1.7-2.7-3.1-4.4-4.2-5s-2.5-1.2-4.6-1.4v-4h42v4c-3.9.6-6.1.9-6.8,1.2-.7.2-1,.9-1,2s1.4,4.2,4.2,8.6,5.3,8.1,7.4,11c5.8-7.3,9.4-11.9,10.8-13.9s2.1-3.6,2.1-5-.7-2.7-2-3.1c-1.4-.5-3.6-.7-6.6-.8v-4h28.2v4c-2.1.3-3.8.8-5.1,1.4-2.5,1.2-4.6,2.8-6.5,5l-17.3,21.4,25.1,38.2c.6.9,1.3,1.6,2,2.1s1.7.9,3,1.4v3.8h-40.5v-3.8c2.3,0,4.2-.3,5.6-.8,1.4-.5,2.1-1.4,2.1-2.8s-.6-2.4-1.7-4.5c-.7-1.3-1.7-3-3.2-5.3-.8-1.3-2-3-3.5-5.3s-2.9-4.3-4.2-6.2c-3.6,4.6-6.2,8.1-8.1,10.6-3.7,5.2-5.6,8.4-5.6,9.9s.7,2.9,2.1,3.5,3.5.9,6.2.9v3.8h-28.3v-3.8h.2Z"/>
      <path class="st2" d="M1035,404c6.4,1.9,9.9,2.7,10.8,2.7,1.6,0,3.1-.5,4.5-1.3,1.4-.9,2.4-2.2,2.9-4h3.5l1.5,37.8h-3.8c-2.2-7.5-5.2-13.5-8.8-18.2-6.9-8.7-16.2-13-27.9-13s-21.4,4.6-28.9,14c-7.5,9.3-11.2,22.1-11.2,38.4s3.9,26.9,11.8,35.9c7.9,8.9,17.8,13.4,29.8,13.4s16.8-2.1,24.1-6.2c4.3-2.3,8.8-5.9,13.9-10.6l3.1,3.1c-3.7,4.7-8.3,8.8-13.9,12.4-9.4,6-19.7,9-30.6,9-18,0-32.4-5.8-43-17.3-9.8-10.6-14.7-24.1-14.7-40s5.2-30.1,15.5-41.2c10.9-11.7,25.1-17.5,42.6-17.5s12.3.9,18.7,2.7h.2Z"/>
      <path class="st2" d="M1084.3,478.3c5-3.2,15-7.7,30.1-13.4v-6.9c0-5.6-.6-9.5-1.6-11.7-1.9-3.7-5.7-5.6-11.6-5.6s-5.4.7-8,2.1c-2.5,1.5-3.8,3.5-3.8,6s.1,1.7.5,3.4c.2,1.5.3,2.5.3,3,0,3.1-1,5.2-3,6.4-1.2.7-2.5,1-4,1-2.4,0-4.4-.8-5.7-2.4-1.3-1.6-2-3.4-2-5.4,0-3.8,2.3-7.9,7.1-12s11.7-6.2,20.8-6.2,17.8,3.5,21.6,10.3c2.1,3.8,3,9.3,3,16.5v33c0,3.2.2,5.3.7,6.6.7,2.1,2.2,3.2,4.4,3.2s2.3-.2,3.1-.6,2.2-1.3,4.3-2.8v4.3c-1.7,2.1-3.7,3.9-5.7,5.2-3.1,2.1-6.1,3.1-9.4,3.1s-6.4-1.2-8.1-3.6-2.5-5.3-2.8-8.7c-4.2,3.6-7.7,6.2-10.6,8.1-5,3-9.7,4.4-14.2,4.4s-8.8-1.6-12.3-5-5.2-7.5-5.2-12.6c0-8,3.9-14.6,11.9-19.9h0v.2ZM1114.4,469.1c-6.2,2.1-11.4,4.4-15.6,6.9-7.9,4.9-11.8,10.4-11.8,16.5s1.6,8.7,5,11c2.1,1.5,4.5,2.3,7.2,2.3s7.1-1,10.4-3c3.4-2.1,5-4.6,5-7.7v-26h-.1Z"/>
      <path class="st2" d="M1141.5,511.8c5-.5,8.3-1.4,10.1-2.7s2.4-4.2,2.4-8.6v-37c0-5.4-.5-9.3-1.5-11.6s-2.9-3.5-5.6-3.5-1.3,0-2.2.2-1.9.3-2.9.6v-2.7c3.1-1.2,6.4-2.2,9.6-3.4s5.6-2,6.8-2.4c2.8-1,5.6-2.2,8.4-3.5.3,0,.6.1.7.3,0,.2.1.8.1,1.7v13.4c3.5-4.9,6.9-8.7,10.2-11.4s6.7-4,10.2-4,5.1.8,6.8,2.5c1.7,1.6,2.7,3.7,2.7,6.2s-.7,4.2-2,5.7-3,2.3-5.1,2.3-4.2-.9-6.2-2.9-3.7-2.9-5-2.9c-2,0-4.3,1.5-7.1,4.6s-4.2,6.2-4.2,9.6v37c0,4.7,1.2,8,3.2,9.8,2.2,1.9,5.8,2.7,10.9,2.5v2.7h-40.5v-2.7h0v-.2Z"/>
      <path class="st2" d="M1255.6,445.5c5.8,5.3,8.7,13,8.7,22.7h-52.2c.6,12.7,3.5,21.9,8.7,27.6s11.3,8.7,18.5,8.7,10.6-1.5,14.6-4.5,7.5-7.3,10.9-12.7l2.9.9c-2.2,6.9-6.5,13.4-12.6,19.3-6.1,5.9-13.6,8.9-22.7,8.9s-18.3-3.9-23.8-11.7c-5.6-7.7-8.4-16.8-8.4-26.8s3.2-20.5,9.8-28.4c6.5-8,15-12,25.4-12s14.5,2.7,20.2,8h0ZM1216.2,451.9c-1.7,2.9-3,6.7-3.8,11.2h34.7c-.6-5.4-1.6-9.6-3.1-12.3-2.7-4.9-7.2-7.2-13.4-7.2s-11,2.8-14.2,8.3h-.1Z"/>
    </g>
    <g>
      <path class="st2" d="M446.1,563.5c2.1-3.8,5.1-6.9,8.9-9s7.9-3.2,12.5-3.2,10.1,1.3,14.1,3.9,7,6.3,8.8,11h-7.7c-1.4-3-3.3-5.2-5.9-6.9-2.6-1.7-5.7-2.4-9.3-2.4s-6.5.8-9.3,2.4-4.9,3.9-6.4,6.9-2.4,6.4-2.4,10.4.8,7.4,2.4,10.3,3.7,5.2,6.4,6.9,5.8,2.4,9.3,2.4,6.6-.8,9.3-2.4,4.5-3.9,5.9-6.9h7.7c-1.9,4.7-4.7,8.4-8.8,10.9-4,2.6-8.8,3.9-14.1,3.9s-8.8-1.1-12.5-3.2-6.8-5.1-8.9-9c-2.1-3.8-3.2-8.2-3.2-12.9s1.1-9.1,3.2-13h0Z"/>
      <path class="st2" d="M499.9,571.2c1.7-3,3.8-5.3,6.6-7s5.9-2.5,9.4-2.5,6.4.7,8.9,2.1,4.4,3.3,5.6,5.6v-7.1h6.5v38.9h-6.5v-7.2c-1.3,2.3-3.2,4.2-5.7,5.7s-5.5,2.3-8.8,2.3-6.5-.8-9.4-2.6c-2.8-1.7-5-4-6.6-7.1s-2.4-6.5-2.4-10.6.8-7.5,2.4-10.4h0ZM528.6,574.2c-1.2-2.1-2.7-3.8-4.7-5s-4.3-1.8-6.6-1.8-4.6.6-6.6,1.7-3.6,2.8-4.7,5-1.8,4.7-1.8,7.7.6,5.6,1.8,7.7c1.2,2.3,2.7,3.9,4.7,5,2,1.2,4.2,1.8,6.6,1.8s4.6-.6,6.6-1.8,3.6-2.8,4.7-5,1.8-4.7,1.8-7.7-.6-5.5-1.8-7.7h0Z"/>
      <path class="st2" d="M559.1,563.5c2.1-1.2,4.6-1.9,7.7-1.9v6.6h-1.7c-7.2,0-10.8,3.9-10.8,11.7v21.1h-6.4v-38.9h6.4v6.3c1.2-2.3,2.7-3.9,4.9-5.2h0v.2Z"/>
      <path class="st2" d="M609.5,584.2h-31.1c.2,3.8,1.5,6.9,3.9,9s5.3,3.2,8.7,3.2,5.1-.6,7-1.9c1.9-1.3,3.2-3.1,3.9-5.2h7c-1.1,3.8-3.1,6.8-6.3,9.1-3.1,2.4-7,3.6-11.6,3.6s-7-.8-9.8-2.5-5.2-4-6.9-7c-1.7-3.1-2.5-6.6-2.5-10.6s.8-7.6,2.4-10.6,3.9-5.3,6.8-7c3-1.7,6.3-2.5,10.1-2.5s7,.8,9.7,2.4c2.8,1.7,5,3.8,6.5,6.6,1.5,2.8,2.3,5.9,2.3,9.5s0,2.5-.2,3.9h.2ZM601.5,572.6c-1.1-1.8-2.6-3.1-4.4-4-1.9-.9-3.9-1.4-6.2-1.4-3.2,0-6,1.1-8.3,3.1s-3.6,5-3.9,8.7h24.5c0-2.5-.6-4.5-1.7-6.3h-.1Z"/>
      <path class="st2" d="M670.6,562.4l-23.4,57.2h-6.6l7.7-18.7-15.7-38.4h7.1l12.2,31.4,12.1-31.4h6.6-.1Z"/>
      <path class="st2" d="M684.1,599.4c-3-1.7-5.2-4-7-7-1.7-3.1-2.5-6.6-2.5-10.6s.8-7.5,2.6-10.6,4-5.3,7-7,6.3-2.5,10-2.5,7,.8,10,2.5c3,1.7,5.3,3.9,7,7s2.6,6.5,2.6,10.6-.8,7.6-2.6,10.6c-1.8,3.1-4.2,5.5-7.2,7s-6.4,2.5-10.1,2.5-7-.8-9.8-2.5h.1ZM700.6,594.6c2-1.1,3.7-2.7,5-4.9s1.9-4.9,1.9-7.9-.6-5.8-1.9-7.9c-1.2-2.1-2.8-3.8-4.9-4.9-2-1.1-4.2-1.5-6.4-1.5s-4.5.6-6.5,1.5-3.6,2.7-4.7,4.9-1.8,4.9-1.8,7.9.6,5.8,1.8,8.1c1.2,2.1,2.7,3.8,4.6,4.9,1.9,1.1,4,1.5,6.4,1.5s4.5-.6,6.5-1.7h0Z"/>
      <path class="st2" d="M756.9,562.4v38.9h-6.4v-5.7c-1.2,2-3,3.6-5.1,4.6s-4.6,1.7-7.2,1.7-5.7-.6-8.2-1.9-4.3-3.1-5.7-5.7c-1.4-2.5-2.1-5.6-2.1-9.1v-22.8h6.4v21.9c0,3.8.9,6.8,3,8.8,1.9,2,4.6,3.1,7.9,3.1s6.2-1.1,8.2-3.2,3-5.2,3-9.3v-21.3h6.4-.1Z"/>
      <path class="st2" d="M786.7,571.2c1.7-3,3.8-5.3,6.8-7,2.8-1.7,6.2-2.5,9.8-2.5s8.7,1.2,11.9,3.4,5.1,5.6,6.2,9.6h-7c-.7-2.4-1.9-4.3-3.9-5.6s-4.3-2-7.1-2-6.6,1.3-8.9,3.8-3.4,6-3.4,10.8,1.2,8.3,3.4,10.9,5.2,3.8,8.9,3.8,5.2-.7,7.1-2,3.2-3.2,3.9-5.7h7c-1.1,4-3.1,7.1-6.3,9.5-3.1,2.4-7,3.6-11.7,3.6s-7-.8-9.8-2.5-5.1-4-6.8-7c-1.7-3.1-2.4-6.5-2.4-10.7s.8-7.5,2.4-10.6h0Z"/>
      <path class="st2" d="M829.8,571.2c1.7-3,3.8-5.3,6.6-7,2.8-1.7,5.9-2.5,9.4-2.5s6.4.7,8.9,2.1,4.4,3.3,5.6,5.6v-7.1h6.5v38.9h-6.5v-7.2c-1.3,2.3-3.2,4.2-5.7,5.7s-5.5,2.3-8.8,2.3-6.5-.8-9.4-2.6c-2.8-1.7-5-4-6.6-7.1-1.7-3.1-2.4-6.5-2.4-10.6s.8-7.5,2.4-10.4h0ZM858.5,574.2c-1.2-2.1-2.7-3.8-4.7-5s-4.3-1.8-6.6-1.8-4.6.6-6.6,1.7-3.6,2.8-4.7,5-1.8,4.7-1.8,7.7.6,5.6,1.8,7.7c1.2,2.3,2.7,3.9,4.7,5,2,1.2,4.2,1.8,6.6,1.8s4.6-.6,6.6-1.8,3.6-2.8,4.7-5,1.8-4.7,1.8-7.7-.6-5.5-1.8-7.7h0Z"/>
      <path class="st2" d="M908.1,566c3,2.8,4.4,7,4.4,12.3v22.9h-6.4v-21.9c0-3.9-.9-6.9-3-8.9s-4.6-3.1-7.9-3.1-6,1.1-8.1,3.2-3,5.2-3,9.3v21.5h-6.4v-38.9h6.4v5.6c1.3-2,3-3.6,5.2-4.6,2.1-1.1,4.6-1.7,7.2-1.7,4.7,0,8.5,1.4,11.5,4.3h0Z"/>
      <path class="st2" d="M954.3,564c2.6-1.4,5.5-2.1,8.7-2.1s6.6.8,9.5,2.5,5,4,6.6,7c1.7,3,2.4,6.5,2.4,10.4s-.8,7.5-2.4,10.6-3.8,5.5-6.6,7.1-5.9,2.6-9.4,2.6-6.3-.7-8.8-2.1c-2.5-1.4-4.4-3.3-5.7-5.6v7.1h-6.4v-52.4h6.4v20.9c1.3-2.3,3.2-4.2,5.8-5.7h0v-.2ZM973,574c-1.2-2.1-2.7-3.8-4.7-5s-4.3-1.7-6.6-1.7-4.5.6-6.5,1.8-3.6,2.8-4.9,5-1.8,4.7-1.8,7.6.6,5.5,1.8,7.7,2.8,3.9,4.9,5,4.2,1.8,6.5,1.8,4.6-.6,6.6-1.8,3.6-2.8,4.7-5,1.8-4.7,1.8-7.7-.6-5.5-1.8-7.7h0Z"/>
      <path class="st2" d="M1025.2,584.2h-31.1c.2,3.8,1.5,6.9,3.9,9s5.3,3.2,8.7,3.2,5.1-.6,7-1.9,3.2-3.1,3.9-5.2h7c-1.1,3.8-3.1,6.8-6.3,9.1-3.1,2.4-7,3.6-11.6,3.6s-7-.8-9.8-2.5-5.2-4-6.9-7c-1.7-3.1-2.5-6.6-2.5-10.6s.8-7.6,2.4-10.6,3.9-5.3,6.8-7c3-1.7,6.3-2.5,10.1-2.5s7,.8,9.7,2.4,5,3.8,6.5,6.6c1.5,2.8,2.3,5.9,2.3,9.5s0,2.5-.2,3.9h.2ZM1017,572.6c-1.1-1.8-2.6-3.1-4.4-4-1.9-.9-3.9-1.4-6.2-1.4-3.2,0-6,1.1-8.3,3.1-2.3,2-3.6,5-3.9,8.7h24.5c0-2.5-.6-4.5-1.7-6.3h-.1Z"/>
      <path class="st2" d="M1040.3,548.8v52.4h-6.4v-52.4h6.4Z"/>
      <path class="st2" d="M1051.5,554.8c-.8-.8-1.3-1.9-1.3-3.1s.5-2.3,1.3-3.1,1.9-1.3,3.1-1.3,2.1.5,3,1.3,1.2,1.9,1.2,3.1-.5,2.3-1.2,3.1c-.8.8-1.9,1.3-3,1.3s-2.3-.5-3.1-1.3ZM1057.7,562.4v38.9h-6.4v-38.9h6.4Z"/>
      <path class="st2" d="M1103.9,584.2h-31.1c.2,3.8,1.5,6.9,3.9,9s5.3,3.2,8.7,3.2,5.1-.6,7-1.9c1.9-1.3,3.2-3.1,3.9-5.2h7c-1.1,3.8-3.1,6.8-6.3,9.1-3.1,2.4-7,3.6-11.6,3.6s-7-.8-9.8-2.5-5.2-4-6.9-7c-1.7-3.1-2.5-6.6-2.5-10.6s.8-7.6,2.4-10.6,3.9-5.3,6.8-7c3-1.7,6.3-2.5,10.1-2.5s7,.8,9.7,2.4,5,3.8,6.5,6.6c1.5,2.8,2.3,5.9,2.3,9.5s0,2.5-.2,3.9h.2ZM1095.9,572.6c-1.1-1.8-2.6-3.1-4.4-4-1.9-.9-3.9-1.4-6.2-1.4-3.2,0-6,1.1-8.3,3.1-2.3,2-3.6,5-3.9,8.7h24.5c0-2.5-.6-4.5-1.7-6.3h-.1Z"/>
      <path class="st2" d="M1127.2,595.3l12.1-32.9h6.9l-15.3,38.9h-7.5l-15.3-38.9h7l12.1,32.9h0Z"/>
      <path class="st2" d="M1187.7,584.2h-31.1c.2,3.8,1.5,6.9,3.9,9s5.3,3.2,8.7,3.2,5.1-.6,7-1.9,3.2-3.1,3.9-5.2h7c-1.1,3.8-3.1,6.8-6.3,9.1-3.1,2.4-7,3.6-11.6,3.6s-7-.8-9.8-2.5-5.2-4-6.9-7c-1.7-3.1-2.5-6.6-2.5-10.6s.8-7.6,2.4-10.6,3.9-5.3,6.8-7c3-1.7,6.3-2.5,10.1-2.5s7,.8,9.7,2.4c2.8,1.7,5,3.8,6.5,6.6,1.5,2.8,2.3,5.9,2.3,9.5s0,2.5-.2,3.9h.2ZM1179.6,572.6c-1.1-1.8-2.6-3.1-4.4-4-1.9-.9-3.9-1.4-6.2-1.4-3.2,0-6,1.1-8.3,3.1s-3.6,5-3.9,8.7h24.5c0-2.5-.6-4.5-1.7-6.3h-.1Z"/>
      <path class="st2" d="M1215.5,554.8c-.8-.8-1.3-1.9-1.3-3.1s.5-2.3,1.3-3.1c.8-.8,1.9-1.3,3.1-1.3s2.1.5,3,1.3,1.2,1.9,1.2,3.1-.5,2.3-1.2,3.1c-.8.8-1.9,1.3-3,1.3s-2.3-.5-3.1-1.3ZM1221.8,562.4v38.9h-6.4v-38.9h6.4Z"/>
      <path class="st2" d="M1263.2,566c3,2.8,4.4,7,4.4,12.3v22.9h-6.4v-21.9c0-3.9-.9-6.9-3-8.9s-4.6-3.1-7.9-3.1-6,1.1-8.1,3.2c-2,2.1-3,5.2-3,9.3v21.5h-6.4v-38.9h6.4v5.6c1.3-2,3-3.6,5.2-4.6,2.1-1.1,4.6-1.7,7.2-1.7,4.7,0,8.5,1.4,11.5,4.3h0Z"/>
    </g>
  </g>
</svg>