<?xml version="1.0" encoding="UTF-8"?>
<svg id="Layer_1" data-name="Layer 1" xmlns="http://www.w3.org/2000/svg" viewBox="0 0 1080 1080">
  <defs>
    <style>
      .cls-1 {
        fill: none;
        stroke: #808081;
        stroke-miterlimit: 10;
        stroke-width: 2.21px;
      }

      .cls-2 {
        fill: #2a66b0;
      }

      .cls-3 {
        fill: #808081;
      }
    </style>
  </defs>
  <g>
    <path class="cls-2" d="M205,806.55c5.2-.04,8.58-.97,10.14-2.77,1.56-1.8,2.33-4.5,2.33-8.1v-64.89c0-3.71-.89-6.15-2.67-7.32-1.78-1.17-4.93-1.93-9.47-2.29v-3.47h34.41l26.87,63.22h1.13l26.72-63.22h34.43v3.47c-4.62.35-7.78,1.21-9.47,2.55-1.69,1.35-2.53,4.65-2.53,9.92v60.42c0,5.03.84,8.31,2.53,9.87,1.69,1.56,4.85,2.42,9.47,2.6v3.47h-45.35v-3.47c4.04-.13,7.09-.81,9.14-2.03,2.04-1.22,3.07-3.9,3.07-8.03v-66.75h-1l-33.48,80.29h-3.66l-33.81-78.69h-.6v61.75c0,4.56.84,7.89,2.53,9.99,1.69,2.1,5.42,3.26,11.2,3.49v3.47h-31.94v-3.47Z"/>
    <path class="cls-2" d="M334.24,806.75c2.4-.4,4.04-1,4.94-1.8,1.33-1.2,2-3.36,2-6.47v-40.14c0-2.78-.47-4.67-1.4-5.68-.93-1.01-2.78-1.76-5.53-2.25v-3.27h26.21v51.88c0,2.98.45,4.89,1.34,5.73.89.85,2.55,1.51,5,2v3.27h-32.54v-3.27ZM343.34,718.76c2.07-2.07,4.57-3.1,7.5-3.1s5.37,1.03,7.43,3.1c2.07,2.07,3.1,4.57,3.1,7.5s-1.03,5.44-3.1,7.5c-2.07,2.07-4.54,3.1-7.43,3.1s-5.44-1.03-7.5-3.1c-2.07-2.07-3.1-4.57-3.1-7.5s1.03-5.43,3.1-7.5Z"/>
    <path class="cls-2" d="M372.18,806.75c2.49-.31,4.32-.99,5.5-2.03,1.18-1.04,1.77-3.12,1.77-6.24v-40.14c0-2.78-.48-4.71-1.43-5.78-.95-1.07-2.9-1.79-5.83-2.15v-3.27h25.87v9.8c2.18-3.29,4.95-6.01,8.3-8.17,3.36-2.16,7.08-3.24,11.17-3.24,5.87,0,10.41,1.51,13.64,4.53,3.22,3.02,4.84,8.34,4.84,15.94v33.01c0,3.07.52,5.05,1.57,5.94,1.04.89,2.79,1.49,5.24,1.8v3.27h-32.08v-3.27c2.44-.49,4.11-1.15,5-2,.89-.84,1.33-2.75,1.33-5.73v-33.08c0-3.11-.31-5.44-.93-7-1.06-2.8-3.18-4.2-6.33-4.2-2.36,0-4.52.86-6.5,2.57-1.98,1.71-3.5,3.43-4.57,5.17v36.54c0,2.98.45,4.89,1.34,5.73.89.85,2.55,1.51,5,2v3.27h-32.88v-3.27Z"/>
    <path class="cls-2" d="M448.14,753.13v-3.8c1.2-1.11,2.69-2.42,4.47-3.93,2.36-2.18,4.58-4.42,6.67-6.74,4.13-4.53,7.89-9.4,11.27-14.61h3.47v23.08h13v6h-13v41.08c0,1.91.29,3.51.87,4.8.89,2,2.36,3,4.4,3,1.78,0,3.27-.63,4.47-1.9,1.2-1.27,2.4-3.01,3.6-5.24l3.27,1.6c-1.6,3.73-3.51,6.78-5.73,9.14-3.91,4.13-8.68,6.2-14.32,6.2-3.2,0-6-.6-8.39-1.8-4.62-2.31-6.94-6.51-6.96-12.6v-44.28h-7.07Z"/>
    <path class="cls-2" d="M502.8,754.23c5.59-5.8,12.32-8.7,20.2-8.7,4.5,0,8.72,1.18,12.69,3.54,3.96,2.36,7.01,5.62,9.15,9.8,1.6,3.16,2.71,7.25,3.34,12.27.31,2.36.47,4.16.47,5.4h-34.88c.31,5.47,1.2,10.2,2.67,14.21,2.67,7.51,7.37,11.27,14.1,11.27,3.21,0,6.24-1,9.09-3,1.74-1.2,3.9-3.22,6.48-6.07l3.13,1.93c-4.23,6.94-9.12,11.76-14.69,14.47-3.6,1.73-7.74,2.6-12.42,2.6-6.72,0-13.02-2.64-18.89-7.93-5.88-5.29-8.81-13.74-8.81-25.34,0-10.49,2.79-18.64,8.38-24.44ZM531.83,771.47c-.09-8.05-.71-13.67-1.87-16.87-1.16-3.2-3.48-4.8-6.96-4.8s-6.01,1.84-7.33,5.53c-1.31,3.69-2.06,9.07-2.24,16.14h18.41Z"/>
    <path class="cls-2" d="M553.9,806.88c2.27-.35,4.21-1.09,5.83-2.2,1.62-1.11,4.1-3.69,7.44-7.74,1.38-1.69,3.2-4.05,5.47-7.08,2.27-3.03,4.14-5.48,5.61-7.35l-17.55-26.89c-1.42-2.18-2.56-3.54-3.4-4.07-.85-.53-2.09-.91-3.73-1.13v-3.27h34.14v3.27c-3.16.45-5,.77-5.53.97-.54.2-.8.73-.8,1.57,0,1.03,1.14,3.35,3.43,6.96,2.29,3.62,4.3,6.61,6.05,8.97,4.7-5.9,7.61-9.66,8.71-11.26,1.11-1.6,1.67-2.94,1.67-4.01,0-1.34-.54-2.18-1.63-2.54-1.09-.36-2.88-.58-5.36-.67v-3.27h22.89v3.27c-1.68.31-3.07.69-4.18,1.13-2.03.89-3.78,2.25-5.24,4.07l-14.12,17.41,20.41,30.99c.49.76,1.03,1.32,1.64,1.7s1.41.77,2.43,1.17v3.13h-32.88v-3.13c1.91-.09,3.42-.31,4.53-.67s1.67-1.11,1.67-2.27c0-.76-.47-1.98-1.4-3.67-.53-1.02-1.4-2.47-2.6-4.34-.66-1.03-1.6-2.46-2.83-4.28-1.23-1.82-2.36-3.52-3.36-5.09-2.92,3.73-5.11,6.61-6.54,8.64-2.98,4.18-4.47,6.88-4.47,8.08,0,1.42.56,2.36,1.7,2.81,1.14.45,2.83.71,5.1.8v3.13h-23.06v-3.13Z"/>
    <path class="cls-3" d="M686.08,720.26c5.2,1.47,8.11,2.2,8.73,2.2,1.29,0,2.51-.35,3.67-1.07,1.15-.71,1.95-1.82,2.4-3.33h2.87l1.27,30.68h-3.13c-1.82-6.09-4.2-11-7.13-14.74-5.6-7.02-13.14-10.54-22.61-10.54s-17.37,3.78-23.44,11.34c-6.07,7.56-9.1,17.96-9.1,31.21,0,12.18,3.19,21.91,9.57,29.17,6.38,7.27,14.46,10.9,24.24,10.9,7.07,0,13.58-1.69,19.54-5.07,3.43-1.91,7.18-4.8,11.27-8.67l2.54,2.53c-3.02,3.82-6.78,7.18-11.27,10.07-7.65,4.89-15.94,7.33-24.87,7.33-14.67,0-26.32-4.69-34.94-14.07-7.96-8.67-11.94-19.5-11.94-32.48s4.2-24.45,12.6-33.47c8.85-9.47,20.36-14.21,34.55-14.21,4.93,0,10,.73,15.2,2.2Z"/>
    <path class="cls-3" d="M726.09,780.61c4.09-2.67,12.25-6.29,24.47-10.87v-5.67c0-4.53-.45-7.69-1.34-9.47-1.51-2.98-4.64-4.47-9.4-4.47-2.27,0-4.42.58-6.47,1.73-2.05,1.2-3.07,2.85-3.07,4.93,0,.54.11,1.44.34,2.7.22,1.27.33,2.08.33,2.43,0,2.49-.82,4.23-2.47,5.2-.93.58-2.05.87-3.33.87-2,0-3.54-.66-4.6-1.97-1.07-1.31-1.6-2.77-1.6-4.37,0-3.11,1.92-6.37,5.77-9.77,3.84-3.4,9.48-5.1,16.91-5.1,8.62,0,14.47,2.8,17.54,8.4,1.64,3.07,2.47,7.54,2.47,13.41v26.74c0,2.58.18,4.36.54,5.33.58,1.73,1.78,2.6,3.6,2.6,1.02,0,1.87-.15,2.53-.47.67-.31,1.82-1.07,3.47-2.27v3.47c-1.42,1.73-2.96,3.16-4.6,4.27-2.49,1.69-5.03,2.53-7.6,2.53-3.02,0-5.21-.98-6.57-2.94-1.36-1.95-2.1-4.29-2.23-7-3.38,2.93-6.27,5.11-8.67,6.53-4.05,2.4-7.89,3.6-11.54,3.6-3.82,0-7.13-1.34-9.94-4.03-2.8-2.69-4.2-6.1-4.2-10.24,0-6.44,3.22-11.82,9.67-16.14ZM750.56,773.07c-5.11,1.69-9.34,3.56-12.67,5.6-6.4,3.96-9.6,8.45-9.6,13.47,0,4.05,1.33,7.02,4,8.94,1.73,1.25,3.67,1.87,5.8,1.87,2.94,0,5.75-.82,8.44-2.47,2.69-1.64,4.04-3.73,4.04-6.27v-21.14Z"/>
    <path class="cls-3" d="M772.63,807.82c4.09-.36,6.8-1.08,8.14-2.17,1.33-1.09,2-3.41,2-6.97v-30.08c0-4.4-.41-7.55-1.23-9.44-.82-1.89-2.33-2.84-4.5-2.84-.45,0-1.03.06-1.77.17-.73.11-1.5.26-2.3.43v-2.2c2.52-.89,5.12-1.8,7.78-2.73,2.66-.93,4.5-1.6,5.52-2,2.22-.84,4.5-1.8,6.85-2.87.31,0,.5.11.56.33.07.22.1.69.1,1.4v10.94c2.85-3.96,5.61-7.05,8.26-9.27,2.65-2.22,5.41-3.33,8.26-3.33,2.27,0,4.12.68,5.55,2.03,1.43,1.36,2.14,3.06,2.14,5.1,0,1.82-.54,3.36-1.63,4.6-1.09,1.25-2.46,1.87-4.1,1.87s-3.39-.78-5.1-2.33c-1.71-1.56-3.06-2.33-4.04-2.33-1.56,0-3.47,1.26-5.73,3.77-2.27,2.51-3.4,5.1-3.4,7.77v30.08c0,3.82.89,6.48,2.67,7.97,1.78,1.49,4.73,2.19,8.87,2.1v2.2h-32.88v-2.2Z"/>
    <path class="cls-3" d="M865.26,753.97c4.71,4.34,7.07,10.48,7.07,18.44h-42.35c.44,10.29,2.78,17.79,7,22.49,4.22,4.7,9.22,7.05,15.01,7.05,4.67,0,8.6-1.22,11.8-3.66,3.2-2.44,6.16-5.9,8.87-10.38l2.33.8c-1.82,5.66-5.24,10.89-10.24,15.7-5,4.81-11.13,7.21-18.37,7.21-8.36,0-14.81-3.16-19.37-9.47-4.56-6.31-6.84-13.58-6.84-21.81,0-8.94,2.64-16.65,7.94-23.14,5.29-6.49,12.18-9.74,20.67-9.74,6.27,0,11.76,2.17,16.47,6.5ZM833.32,759.07c-1.42,2.4-2.45,5.42-3.07,9.07h28.14c-.49-4.45-1.34-7.76-2.53-9.94-2.18-3.91-5.83-5.87-10.94-5.87s-8.94,2.25-11.6,6.74Z"/>
  </g>
  <g>
    <path class="cls-2" d="M470.95,402.53c3.97.99,7.18,3.19,10.23,5.65,6.11,4.93,11.3,10.77,16.5,16.59,7.59,8.48,14.84,17.28,23.42,24.81,4.55,3.99,9.39,7.52,15.17,9.59,1.22.44,2.33.45,3.56.02,5.68-2.03,10.46-5.48,14.94-9.38,7.11-6.18,13.19-13.35,19.52-20.29,5.95-6.52,12.01-12.94,18.22-19.2,3.35-3.37,7.27-6.09,11.78-7.81.23-.09.46-.16.94-.33-1.92,2.02-3.74,3.75-5.36,5.66-5.2,6.13-9.46,12.91-13.38,19.9-9.06,16.14-16.46,32.99-22.05,50.67-3.43,10.86-4.07,21.8-2.36,32.95,1.47,9.57,3.05,19.12,4.52,28.7.1.65-.08,1.59-.5,2.05-9.22,10.11-18.48,20.17-27.74,30.23-.07.07-.18.1-.36.2-3.36-3.65-6.75-7.32-10.12-11-5.84-6.35-11.66-12.72-17.52-19.04-.81-.88-1-1.66-.76-2.86,2.64-13.37,4.81-26.8,5.51-40.43.31-5.99-.86-11.8-2.52-17.49-7.09-24.35-17.59-47.13-31.85-68.14-1.4-2.06-2.95-4.04-4.6-5.91-1.61-1.81-3.44-3.43-5.17-5.13Z"/>
    <path class="cls-2" d="M703.83,417.93s-.43.07-.79.07c-10.16.02-20.32.02-30.51-.02-.66,0-1.5-.34-1.97-.82-42.94-42.87-85.83-85.78-128.72-128.7-.41-.41-.66-.93-1.13-1.59-1.7,1.77-3.04,3.22-4.45,4.63-35.88,35.86-71.74,71.72-107.6,107.58-8.76,8.76-17.49,17.51-26.27,26.22-.75.75-1.09,1.47-1.09,2.54.02,68.86.02,137.7.02,206.56v1.75h75.73c.16-1.66.32-3.29.5-4.9.34-2.93.73-5.85,1-8.8.07-.59-.18-1.32-.52-1.81-10.98-15.72-21.98-31.44-33-47.11-.75-1.07-.95-1.86-.3-3.13,12.79-25.06,25.54-50.17,38.29-75.26,1.04-2.09,2.13-4.17,3.24-6.37,2.63,1.79,4.31,4.22,5.42,7.08,1.95,4.97,1.77,10.09,1.02,15.24-.88,6.17-3.45,11.82-5.53,17.6-4.4,12.34-8.91,24.63-13.34,36.97-.2.59-.05,1.52.32,2.06,5.65,8.48,11.43,16.9,17.03,25.4,1.22,1.84,2.09,3.97,2.9,6.03,1.84,4.63,3.54,9.3,5.6,13.88-.18-1.88-.36-3.77-.54-5.65-.5-4.92-1-9.84-1.52-14.77-.07-.68-.29-1.41-.66-2-4.97-8.12-9.98-16.24-15.04-24.31-.73-1.18-.79-2.13-.32-3.4,1.97-5.24,3.83-10.52,5.74-15.81.18-.48.39-.93.48-1.16,3.92,3.79,7.89,7.53,11.75,11.39,9.71,9.8,19.35,19.64,29.06,29.42,1.34,1.34,1.97,2.68,2.04,4.65.36,11.36.95,22.75,1.36,34.11.11,3.52.05,7.03.02,10.64h16.83c0-1.27-.02-2.49.05-3.74.57-14.29,1.16-28.58,1.79-42.85.02-.54.36-1.16.75-1.54,12.41-12.63,24.84-25.27,37.29-37.88,1.47-1.47,2.97-2.93,4.58-4.51.95,2.63,1.88,5.22,2.81,7.78,1.22,3.36,2.5,6.69,3.63,10.07.23.66.16,1.66-.2,2.22-5.04,8.28-10.14,16.53-15.22,24.77-.27.48-.61,1-.68,1.52-.73,6.99-1.43,13.97-1.93,21.07.14-.27.29-.52.41-.77,1.91-5.01,3.56-10.12,5.76-14.99,1.5-3.31,3.61-6.35,5.63-9.41,4.47-6.76,9.05-13.47,13.61-20.16.57-.84.54-1.52.2-2.4-5.58-15.31-11.18-30.64-16.69-45.98-2.45-6.78-3.49-13.74-1.93-20.91.91-4.22,3.31-7.76,6.28-9.62,4.2,8.28,8.37,16.44,12.52,24.63,9.64,19.01,19.28,38.01,28.99,56.98.59,1.18.52,1.95-.23,2.99-11,15.65-21.98,31.3-32.91,47-.48.68-.7,1.7-.64,2.52.43,4.4.95,8.75,1.45,13.22h66.5v23.25h-292.8v-1.43c0-79.95,0-159.91-.02-239.84,0-1.07.32-1.79,1.07-2.54,53.46-53.44,106.9-106.88,160.34-160.32.36-.36.68-.77.88-1,54.64,54.64,109.17,109.17,163.65,163.65Z"/>
  </g>
  <g>
    <path class="cls-3" d="M538.02,448.33c-10.3-.06-18.55-8.33-18.44-18.5.11-10.45,8.41-18.45,19.07-18.38,9.78.07,18.06,8.67,17.92,18.62-.15,10.24-8.34,18.31-18.55,18.25Z"/>
    <path class="cls-3" d="M541.44,225.95c-.65-.67-1.15-.63-1.79.01-5.14,5.16-10.29,10.31-15.46,15.44-4,3.98-8.04,7.91-12.03,11.9-4.97,4.97-9.89,9.99-14.85,14.97-6.62,6.65-13.26,13.29-19.9,19.93-8.26,8.28-16.52,16.56-24.8,24.84-11.21,11.21-22.44,22.4-33.65,33.61-9.4,9.39-18.77,18.81-28.17,28.21-7.84,7.84-15.69,15.65-23.53,23.49-6.06,6.06-12.08,12.14-18.18,18.16-.63.62-1.62.92-2.5,1.2-.61.19-1.32.13-1.99.13-8.99,0-17.97,0-26.96,0-.39,0-.79,0-1.07,0,74.68-74.69,149.34-149.37,224.19-224.23,18.64,18.71,37.36,37.48,56.07,56.25.18-.08.36-.15.54-.23.39-6.25.12-12.53.17-18.79.05-6.25.01-12.5.01-18.9.77,0,1.38,0,1.98,0,15.66,0,31.32,0,46.98,0q2.11,0,2.11,2.08c0,28.45,0,56.89-.03,85.34,0,1.5.43,2.58,1.5,3.64,8.03,7.95,16.01,15.93,23.98,23.95,2.18,2.19,4.18,4.56,6.35,6.76,1.45,1.47,3.13,2.71,4.59,4.17,26.27,26.24,52.52,52.49,78.77,78.74.28.28.53.59.94,1.05-.6.06-.98.14-1.36.14-9.5,0-19,.03-28.5-.05-.91,0-2.03-.46-2.67-1.09l-190.73-190.75ZM637.49,322.04"/>
  </g>
  <g>
    <g>
      <path class="cls-3" d="M309.54,854.9c1.22-2.16,2.89-3.86,5-5.08,2.11-1.22,4.45-1.83,7.03-1.83,3.03,0,5.67.73,7.93,2.19,2.26,1.46,3.9,3.53,4.94,6.21h-4.34c-.77-1.67-1.88-2.96-3.33-3.86-1.45-.9-3.18-1.35-5.2-1.35s-3.68.45-5.22,1.35c-1.54.9-2.75,2.18-3.62,3.84-.88,1.66-1.32,3.61-1.32,5.84s.44,4.13,1.32,5.79c.88,1.66,2.08,2.94,3.62,3.85,1.54.9,3.28,1.35,5.22,1.35s3.75-.44,5.2-1.33c1.45-.89,2.56-2.17,3.33-3.85h4.34c-1.04,2.66-2.68,4.71-4.94,6.16-2.26,1.45-4.9,2.17-7.93,2.17-2.58,0-4.92-.6-7.03-1.81-2.11-1.21-3.78-2.89-5-5.04-1.22-2.15-1.83-4.58-1.83-7.29s.61-5.14,1.83-7.31Z"/>
      <path class="cls-3" d="M339.81,859.25c.9-1.69,2.14-2.99,3.73-3.93,1.58-.93,3.34-1.39,5.28-1.39s3.57.41,4.98,1.23c1.41.83,2.46,1.86,3.15,3.11v-3.99h3.66v21.83h-3.66v-4.06c-.72,1.27-1.79,2.33-3.21,3.17-1.42.84-3.07,1.25-4.96,1.25s-3.69-.48-5.26-1.43c-1.57-.96-2.8-2.3-3.71-4.02s-1.35-3.69-1.35-5.9.45-4.19,1.35-5.87ZM355.94,860.86c-.66-1.22-1.56-2.16-2.69-2.81s-2.37-.98-3.72-.98-2.59.32-3.7.96-2.01,1.57-2.67,2.79c-.66,1.22-1,2.65-1,4.3s.33,3.13,1,4.36c.66,1.24,1.56,2.18,2.67,2.83,1.11.65,2.35.98,3.7.98s2.6-.33,3.72-.98c1.13-.65,2.02-1.59,2.69-2.83.66-1.23,1-2.67,1-4.32s-.34-3.08-1-4.3Z"/>
      <path class="cls-3" d="M373.09,854.92c1.18-.69,2.62-1.04,4.32-1.04v3.75h-.96c-4.06,0-6.09,2.2-6.09,6.61v11.87h-3.63v-21.83h3.63v3.55c.64-1.25,1.55-2.22,2.73-2.91Z"/>
      <path class="cls-3" d="M401.39,866.56h-17.45c.13,2.15.87,3.83,2.21,5.04,1.34,1.21,2.97,1.81,4.88,1.81,1.57,0,2.87-.37,3.92-1.1s1.79-1.71,2.21-2.93h3.91c-.58,2.1-1.75,3.81-3.51,5.12-1.75,1.31-3.93,1.97-6.53,1.97-2.07,0-3.92-.46-5.56-1.39-1.64-.93-2.92-2.25-3.85-3.96-.93-1.72-1.39-3.7-1.39-5.96s.45-4.23,1.35-5.93c.9-1.7,2.17-3.01,3.81-3.93,1.63-.92,3.51-1.37,5.63-1.37s3.9.45,5.5,1.35c1.59.91,2.82,2.15,3.69,3.73s1.29,3.36,1.29,5.36c0,.69-.04,1.42-.12,2.19ZM396.84,860.04c-.61-1-1.44-1.75-2.49-2.27-1.05-.52-2.21-.78-3.48-.78-1.83,0-3.39.58-4.68,1.75-1.29,1.17-2.03,2.79-2.21,4.86h13.78c0-1.38-.31-2.57-.92-3.56Z"/>
      <path class="cls-3" d="M435.72,854.29l-13.14,32.11h-3.75l4.3-10.52-8.8-21.59h4.02l6.85,17.69,6.77-17.69h3.75Z"/>
      <path class="cls-3" d="M443.31,875.08c-1.66-.93-2.96-2.25-3.91-3.96-.94-1.72-1.41-3.7-1.41-5.96s.48-4.2,1.45-5.91c.97-1.71,2.29-3.03,3.97-3.95,1.67-.92,3.54-1.37,5.61-1.37s3.94.46,5.61,1.37c1.68.92,3,2.23,3.97,3.93.97,1.7,1.45,3.68,1.45,5.93s-.5,4.24-1.49,5.96c-1,1.71-2.35,3.03-4.05,3.96-1.7.93-3.58,1.39-5.65,1.39s-3.9-.46-5.56-1.39ZM452.53,872.37c1.14-.61,2.06-1.53,2.77-2.75.7-1.22,1.06-2.71,1.06-4.46s-.35-3.24-1.04-4.46c-.69-1.22-1.59-2.13-2.71-2.73s-2.32-.9-3.62-.9-2.54.3-3.64.9c-1.1.6-1.99,1.51-2.65,2.73-.66,1.22-1,2.71-1,4.46s.33,3.28.98,4.5,1.52,2.13,2.61,2.73c1.09.6,2.28.9,3.58.9s2.52-.31,3.66-.92Z"/>
      <path class="cls-3" d="M484.2,854.29v21.83h-3.63v-3.23c-.69,1.11-1.65,1.98-2.89,2.61-1.23.62-2.6.94-4.08.94-1.7,0-3.23-.35-4.58-1.06-1.36-.7-2.43-1.76-3.21-3.17s-1.17-3.12-1.17-5.14v-12.79h3.58v12.31c0,2.15.54,3.81,1.64,4.96,1.09,1.15,2.58,1.73,4.46,1.73s3.46-.6,4.58-1.79c1.11-1.19,1.67-2.93,1.67-5.22v-11.99h3.63Z"/>
      <path class="cls-3" d="M500.96,859.25c.9-1.69,2.16-2.99,3.77-3.93,1.61-.93,3.44-1.39,5.52-1.39,2.68,0,4.89.65,6.63,1.95,1.74,1.3,2.89,3.11,3.45,5.42h-3.91c-.37-1.33-1.1-2.38-2.17-3.15-1.08-.77-2.41-1.15-4-1.15-2.07,0-3.74.71-5.02,2.13-1.28,1.42-1.91,3.43-1.91,6.03s.64,4.66,1.91,6.1c1.27,1.43,2.95,2.15,5.02,2.15,1.59,0,2.92-.37,3.98-1.11,1.06-.74,1.79-1.81,2.19-3.19h3.91c-.58,2.23-1.75,4.02-3.51,5.36-1.75,1.34-3.94,2.01-6.57,2.01-2.07,0-3.91-.46-5.52-1.39-1.61-.93-2.86-2.24-3.77-3.94-.9-1.7-1.35-3.69-1.35-5.98s.45-4.23,1.35-5.91Z"/>
      <path class="cls-3" d="M525.14,859.25c.9-1.69,2.14-2.99,3.73-3.93,1.58-.93,3.34-1.39,5.28-1.39s3.57.41,4.98,1.23c1.41.83,2.46,1.86,3.15,3.11v-3.99h3.66v21.83h-3.66v-4.06c-.72,1.27-1.79,2.33-3.21,3.17-1.42.84-3.07,1.25-4.96,1.25s-3.69-.48-5.26-1.43c-1.57-.96-2.8-2.3-3.71-4.02-.9-1.73-1.35-3.69-1.35-5.9s.45-4.19,1.35-5.87ZM541.27,860.86c-.66-1.22-1.56-2.16-2.69-2.81-1.13-.65-2.37-.98-3.72-.98s-2.59.32-3.7.96-2.01,1.57-2.67,2.79c-.66,1.22-1,2.65-1,4.3s.33,3.13,1,4.36c.66,1.24,1.56,2.18,2.67,2.83,1.11.65,2.35.98,3.7.98s2.6-.33,3.72-.98c1.13-.65,2.02-1.59,2.69-2.83.66-1.23,1-2.67,1-4.32s-.34-3.08-1-4.3Z"/>
      <path class="cls-3" d="M569.16,856.3c1.65,1.61,2.47,3.93,2.47,6.95v12.87h-3.59v-12.35c0-2.18-.54-3.84-1.63-5-1.09-1.15-2.58-1.73-4.46-1.73s-3.43.6-4.56,1.79c-1.13,1.19-1.69,2.93-1.69,5.22v12.07h-3.63v-21.83h3.63v3.11c.72-1.12,1.69-1.98,2.93-2.59,1.23-.61,2.6-.92,4.08-.92,2.65,0,4.81.8,6.45,2.41Z"/>
      <path class="cls-3" d="M595.08,855.16c1.43-.82,3.07-1.23,4.9-1.23,1.96,0,3.73.46,5.3,1.39,1.57.93,2.8,2.24,3.7,3.93.9,1.69,1.35,3.64,1.35,5.87s-.45,4.17-1.35,5.9c-.9,1.73-2.14,3.07-3.72,4.02-1.58.96-3.34,1.43-5.28,1.43s-3.54-.41-4.96-1.23c-1.42-.82-2.49-1.87-3.21-3.15v4.02h-3.63v-29.47h3.63v11.71c.74-1.3,1.83-2.36,3.27-3.19ZM605.64,860.82c-.67-1.22-1.56-2.15-2.69-2.79-1.13-.64-2.37-.96-3.72-.96s-2.56.33-3.68.98c-1.13.65-2.03,1.59-2.71,2.83-.68,1.23-1.02,2.66-1.02,4.28s.34,3.09,1.02,4.32c.68,1.24,1.58,2.18,2.71,2.83s2.36.98,3.68.98,2.6-.33,3.72-.98,2.02-1.59,2.69-2.83c.66-1.23,1-2.69,1-4.36s-.34-3.08-1-4.3Z"/>
      <path class="cls-3" d="M634.92,866.56h-17.45c.13,2.15.87,3.83,2.21,5.04,1.34,1.21,2.97,1.81,4.88,1.81,1.57,0,2.87-.37,3.92-1.1,1.05-.73,1.79-1.71,2.21-2.93h3.91c-.58,2.1-1.75,3.81-3.51,5.12-1.75,1.31-3.93,1.97-6.53,1.97-2.07,0-3.92-.46-5.56-1.39-1.64-.93-2.92-2.25-3.85-3.96-.93-1.72-1.39-3.7-1.39-5.96s.45-4.23,1.35-5.93,2.17-3.01,3.81-3.93c1.63-.92,3.51-1.37,5.63-1.37s3.9.45,5.5,1.35c1.59.91,2.82,2.15,3.69,3.73.86,1.58,1.29,3.36,1.29,5.36,0,.69-.04,1.42-.12,2.19ZM630.37,860.04c-.61-1-1.44-1.75-2.49-2.27-1.05-.52-2.21-.78-3.48-.78-1.83,0-3.39.58-4.68,1.75-1.29,1.17-2.03,2.79-2.21,4.86h13.78c0-1.38-.31-2.57-.92-3.56Z"/>
      <path class="cls-3" d="M643.44,846.64v29.47h-3.63v-29.47h3.63Z"/>
      <path class="cls-3" d="M649.73,850.03c-.48-.48-.72-1.06-.72-1.75s.24-1.27.72-1.75c.48-.48,1.06-.72,1.75-.72s1.23.24,1.7.72c.46.48.7,1.06.7,1.75s-.24,1.27-.7,1.75c-.47.48-1.03.72-1.7.72s-1.27-.24-1.75-.72ZM653.24,854.29v21.83h-3.63v-21.83h3.63Z"/>
      <path class="cls-3" d="M679.21,866.56h-17.45c.13,2.15.87,3.83,2.21,5.04,1.34,1.21,2.97,1.81,4.88,1.81,1.57,0,2.87-.37,3.92-1.1,1.05-.73,1.79-1.71,2.21-2.93h3.91c-.58,2.1-1.75,3.81-3.51,5.12-1.75,1.31-3.93,1.97-6.53,1.97-2.07,0-3.92-.46-5.56-1.39-1.64-.93-2.92-2.25-3.85-3.96-.93-1.72-1.39-3.7-1.39-5.96s.45-4.23,1.35-5.93c.9-1.7,2.17-3.01,3.81-3.93,1.63-.92,3.51-1.37,5.63-1.37s3.9.45,5.5,1.35c1.59.91,2.82,2.15,3.69,3.73.86,1.58,1.29,3.36,1.29,5.36,0,.69-.04,1.42-.12,2.19ZM674.66,860.04c-.61-1-1.44-1.75-2.49-2.27-1.05-.52-2.21-.78-3.48-.78-1.83,0-3.39.58-4.68,1.75-1.29,1.17-2.03,2.79-2.21,4.86h13.78c0-1.38-.31-2.57-.92-3.56Z"/>
      <path class="cls-3" d="M692.23,872.77l6.77-18.48h3.87l-8.56,21.83h-4.22l-8.56-21.83h3.9l6.81,18.48Z"/>
      <path class="cls-3" d="M726.25,866.56h-17.45c.13,2.15.87,3.83,2.21,5.04,1.34,1.21,2.97,1.81,4.88,1.81,1.57,0,2.87-.37,3.92-1.1,1.05-.73,1.79-1.71,2.21-2.93h3.91c-.58,2.1-1.75,3.81-3.51,5.12-1.75,1.31-3.93,1.97-6.53,1.97-2.07,0-3.92-.46-5.56-1.39-1.64-.93-2.92-2.25-3.85-3.96-.93-1.72-1.39-3.7-1.39-5.96s.45-4.23,1.35-5.93c.9-1.7,2.17-3.01,3.81-3.93,1.63-.92,3.51-1.37,5.63-1.37s3.9.45,5.5,1.35c1.59.91,2.82,2.15,3.69,3.73.86,1.58,1.29,3.36,1.29,5.36,0,.69-.04,1.42-.12,2.19ZM721.71,860.04c-.61-1-1.44-1.75-2.49-2.27-1.05-.52-2.21-.78-3.48-.78-1.83,0-3.39.58-4.68,1.75-1.29,1.17-2.03,2.79-2.21,4.86h13.78c0-1.38-.31-2.57-.92-3.56Z"/>
      <path class="cls-3" d="M741.9,850.03c-.48-.48-.72-1.06-.72-1.75s.24-1.27.72-1.75,1.06-.72,1.75-.72,1.23.24,1.7.72c.46.48.7,1.06.7,1.75s-.24,1.27-.7,1.75c-.47.48-1.03.72-1.7.72s-1.27-.24-1.75-.72ZM745.41,854.29v21.83h-3.63v-21.83h3.63Z"/>
      <path class="cls-3" d="M768.67,856.3c1.65,1.61,2.47,3.93,2.47,6.95v12.87h-3.59v-12.35c0-2.18-.54-3.84-1.63-5-1.09-1.15-2.58-1.73-4.46-1.73s-3.43.6-4.56,1.79c-1.13,1.19-1.69,2.93-1.69,5.22v12.07h-3.63v-21.83h3.63v3.11c.72-1.12,1.69-1.98,2.93-2.59,1.23-.61,2.6-.92,4.08-.92,2.65,0,4.81.8,6.45,2.41Z"/>
    </g>
    <line class="cls-1" x1="787.85" y1="865.15" x2="875" y2="865.15"/>
    <line class="cls-1" x1="205" y1="865.15" x2="292.15" y2="865.15"/>
  </g>
</svg>