<?xml version="1.0" encoding="UTF-8"?>
<svg id="Layer_1" data-name="Layer 1" xmlns="http://www.w3.org/2000/svg" viewBox="0 0 1298.48 737.38">
  <defs>
    <style>
      .cls-1 {
        fill: #2a66b0;
      }

      .cls-2 {
        fill: #808081;
      }
    </style>
  </defs>
  <g>
    <g>
      <path class="cls-1" d="M199.87,343.17c4.22,1.05,7.64,3.39,10.89,6.01,6.5,5.24,12.02,11.46,17.57,17.66,8.08,9.03,15.79,18.39,24.93,26.41,4.84,4.25,10,8.01,16.14,10.21,1.3.46,2.48.48,3.79.02,6.04-2.16,11.13-5.83,15.91-9.98,7.57-6.58,14.04-14.21,20.78-21.59,6.33-6.94,12.78-13.77,19.39-20.44,3.56-3.59,7.74-6.48,12.54-8.32.24-.09.49-.17,1-.35-2.05,2.15-3.99,3.99-5.71,6.02-5.54,6.52-10.07,13.74-14.25,21.18-9.65,17.18-17.52,35.12-23.47,53.93-3.65,11.56-4.33,23.2-2.51,35.07,1.56,10.19,3.24,20.36,4.81,30.54.11.7-.09,1.69-.54,2.18-9.81,10.76-19.67,21.47-29.53,32.18-.07.08-.19.11-.38.21-3.58-3.89-7.18-7.79-10.78-11.71-6.21-6.76-12.41-13.54-18.65-20.27-.87-.93-1.06-1.77-.81-3.04,2.81-14.23,5.12-28.53,5.87-43.04.33-6.38-.91-12.56-2.68-18.62-7.55-25.92-18.72-50.17-33.9-72.52-1.49-2.2-3.14-4.31-4.9-6.29-1.71-1.93-3.66-3.65-5.5-5.46h-.01Z"/>
      <path class="cls-1" d="M447.74,359.56s-.46.07-.84.07c-10.82.02-21.63.02-32.47-.02-.7,0-1.59-.36-2.1-.87-45.7-45.63-91.35-91.3-137.01-136.98-.43-.43-.7-.99-1.21-1.69-1.81,1.88-3.24,3.43-4.73,4.93-38.19,38.17-76.36,76.34-114.53,114.5-9.32,9.32-18.61,18.64-27.96,27.91-.8.8-1.16,1.57-1.16,2.7.02,73.29.02,146.57.02,219.86v1.86h80.61c.17-1.76.34-3.5.53-5.21.36-3.11.77-6.23,1.06-9.37.07-.63-.19-1.4-.56-1.93-11.68-16.73-23.39-33.46-35.13-50.14-.8-1.13-1.01-1.98-.31-3.33,13.62-26.68,27.18-53.4,40.75-80.1,1.11-2.22,2.27-4.44,3.45-6.78,2.8,1.91,4.59,4.49,5.77,7.53,2.08,5.29,1.88,10.74,1.09,16.22-.94,6.57-3.67,12.58-5.89,18.73-4.68,13.13-9.49,26.22-14.2,39.35-.22.63-.05,1.62.34,2.2,6.01,9.03,12.17,17.99,18.13,27.04,1.3,1.96,2.22,4.22,3.09,6.42,1.96,4.92,3.77,9.9,5.96,14.77-.19-2-.39-4.01-.58-6.01-.53-5.24-1.06-10.48-1.62-15.72-.07-.72-.31-1.5-.7-2.12-5.29-8.64-10.62-17.29-16.01-25.88-.77-1.25-.84-2.27-.34-3.62,2.1-5.58,4.08-11.2,6.11-16.83.19-.51.41-.99.51-1.23,4.18,4.03,8.4,8.02,12.51,12.12,10.33,10.43,20.59,20.91,30.93,31.31,1.42,1.42,2.1,2.85,2.17,4.95.39,12.1,1.01,24.21,1.45,36.31.12,3.74.05,7.48.02,11.32h17.91c0-1.35-.02-2.66.05-3.98.6-15.21,1.23-30.42,1.91-45.6.02-.58.39-1.23.8-1.64,13.21-13.45,26.44-26.89,39.69-40.32,1.57-1.57,3.16-3.11,4.88-4.8,1.01,2.8,2,5.55,2.99,8.28,1.3,3.57,2.66,7.12,3.86,10.72.24.7.17,1.76-.22,2.37-5.36,8.81-10.79,17.6-16.2,26.36-.29.51-.65,1.06-.72,1.62-.77,7.44-1.52,14.87-2.05,22.43.14-.29.31-.56.43-.82,2.03-5.34,3.79-10.77,6.13-15.96,1.59-3.53,3.84-6.76,5.99-10.02,4.76-7.19,9.63-14.34,14.49-21.46.6-.89.58-1.62.22-2.56-5.94-16.3-11.9-32.62-17.77-48.94-2.61-7.22-3.72-14.63-2.05-22.26.97-4.49,3.52-8.26,6.69-10.24,4.47,8.81,8.91,17.5,13.33,26.22,10.26,20.23,20.52,40.46,30.85,60.64.63,1.26.56,2.08-.24,3.19-11.71,16.66-23.39,33.32-35.03,50.02-.51.72-.75,1.81-.68,2.68.46,4.68,1.01,9.32,1.55,14.07h70.78v24.75H100.85v-1.52c0-85.1,0-170.2-.02-255.28,0-1.13.34-1.91,1.13-2.7,56.9-56.88,113.78-113.76,170.66-170.63.39-.39.72-.82.94-1.06l174.18,174.18h0Z"/>
    </g>
    <g>
      <path class="cls-2" d="M271.26,391.92c-10.97-.06-19.74-8.86-19.63-19.69.11-11.13,8.95-19.64,20.3-19.56,10.41.07,19.22,9.23,19.07,19.82-.16,10.9-8.88,19.49-19.74,19.43Z"/>
      <path class="cls-2" d="M274.9,155.22c-.69-.72-1.22-.68-1.91,0-5.47,5.49-10.95,10.97-16.45,16.44-4.26,4.23-8.56,8.42-12.81,12.67-5.29,5.29-10.53,10.63-15.81,15.93-7.05,7.08-14.12,14.14-21.18,21.22-8.8,8.81-17.59,17.63-26.39,26.43-11.93,11.93-23.88,23.84-35.82,35.78-10,10-19.98,20.02-29.98,30.02-8.34,8.34-16.7,16.66-25.04,25-6.45,6.45-12.86,12.93-19.35,19.33-.67.66-1.73.98-2.66,1.27-.65.21-1.41.14-2.11.14h-29.83c79.47-79.49,158.94-158.98,238.6-238.66,19.84,19.91,39.76,39.89,59.68,59.88.19-.08.38-.16.58-.24.42-6.66.13-13.33.18-20,.05-6.65.01-13.3.01-20.11h52.12c1.49,0,2.24.74,2.24,2.22,0,30.28.01,60.56-.03,90.84,0,1.6.46,2.75,1.6,3.88,8.54,8.46,17.04,16.96,25.52,25.49,2.32,2.33,4.45,4.86,6.76,7.2,1.54,1.56,3.33,2.89,4.89,4.44,27.96,27.93,55.9,55.87,83.84,83.81.3.3.56.63,1,1.12-.63.07-1.04.15-1.45.15-10.11,0-20.22.03-30.33-.05-.96,0-2.17-.49-2.85-1.16l-203.02-203.05Z"/>
    </g>
  </g>
  <g>
    <g>
      <path class="cls-1" d="M447.43,491.19c5.54-.05,9.13-1.03,10.79-2.95,1.66-1.91,2.48-4.79,2.48-8.62v-69.07c0-3.95-.95-6.54-2.84-7.79s-5.25-2.06-10.08-2.43v-3.69h36.63l28.6,67.29h1.21l28.44-67.29h36.65v3.69c-4.92.38-8.28,1.29-10.08,2.72-1.8,1.44-2.7,4.95-2.7,10.56v64.31c0,5.35.9,8.85,2.7,10.5,1.8,1.66,5.16,2.58,10.08,2.77v3.69h-48.27v-3.69c4.3-.14,7.55-.86,9.73-2.16,2.17-1.3,3.26-4.15,3.26-8.55v-71.05h-1.06l-35.63,85.46h-3.9l-35.99-83.75h-.64v65.73c0,4.85.9,8.39,2.7,10.63s5.77,3.47,11.93,3.71v3.69h-34.01v-3.71Z"/>
      <path class="cls-1" d="M584.99,491.4c2.55-.42,4.3-1.06,5.25-1.91,1.42-1.28,2.13-3.57,2.13-6.89v-42.73c0-2.96-.5-4.98-1.49-6.05s-2.96-1.87-5.89-2.4v-3.48h27.89v55.22c0,3.17.47,5.21,1.42,6.1.95.9,2.72,1.61,5.32,2.13v3.48h-34.64v-3.48h0ZM594.68,397.74c2.2-2.2,4.86-3.3,7.99-3.3s5.71,1.1,7.91,3.3,3.3,4.86,3.3,7.98-1.1,5.79-3.3,7.99-4.84,3.3-7.91,3.3-5.79-1.1-7.99-3.3c-2.2-2.2-3.3-4.86-3.3-7.99s1.1-5.78,3.3-7.98Z"/>
      <path class="cls-1" d="M625.37,491.4c2.65-.33,4.6-1.05,5.86-2.16,1.25-1.11,1.88-3.32,1.88-6.64v-42.73c0-2.96-.51-5.01-1.53-6.16-1.02-1.14-3.09-1.91-6.21-2.29v-3.48h27.54v10.43c2.32-3.5,5.26-6.4,8.84-8.69,3.57-2.29,7.54-3.44,11.89-3.44,6.25,0,11.08,1.61,14.52,4.83,3.43,3.22,5.15,8.87,5.15,16.96v35.14c0,3.26.56,5.37,1.67,6.32s2.97,1.59,5.57,1.91v3.48h-34.14v-3.48c2.6-.52,4.38-1.23,5.32-2.13.95-.9,1.42-2.93,1.42-6.1v-35.21c0-3.31-.33-5.8-.99-7.45-1.13-2.98-3.38-4.47-6.74-4.47-2.51,0-4.81.91-6.92,2.73s-3.73,3.66-4.86,5.5v38.9c0,3.17.47,5.21,1.42,6.1.95.9,2.72,1.61,5.32,2.13v3.48h-34.99v-3.48h-.02Z"/>
      <path class="cls-1" d="M706.22,434.33v-4.04c1.28-1.18,2.86-2.58,4.76-4.19,2.51-2.32,4.87-4.71,7.1-7.17,4.4-4.83,8.4-10.01,12-15.55h3.69v24.56h13.84v6.39h-13.84v43.72c0,2.04.31,3.74.92,5.11.95,2.13,2.51,3.19,4.68,3.19,1.89,0,3.48-.67,4.75-2.02,1.28-1.35,2.56-3.21,3.83-5.57l3.48,1.71c-1.7,3.97-3.73,7.22-6.1,9.72-4.16,4.4-9.24,6.6-15.24,6.6-3.41,0-6.38-.64-8.94-1.91-4.92-2.46-7.39-6.93-7.41-13.41v-47.13h-7.52Z"/>
      <path class="cls-1" d="M764.4,435.5c5.95-6.18,13.11-9.26,21.5-9.26,4.79,0,9.29,1.26,13.5,3.76,4.22,2.51,7.46,5.99,9.74,10.44,1.71,3.36,2.89,7.71,3.55,13.06.33,2.51.5,4.42.5,5.75h-37.12c.33,5.82,1.28,10.86,2.84,15.12,2.85,8,7.85,12,15.01,12,3.41,0,6.64-1.06,9.67-3.19,1.85-1.28,4.15-3.43,6.9-6.46l3.34,2.06c-4.5,7.38-9.71,12.52-15.64,15.4-3.84,1.85-8.24,2.77-13.22,2.77-7.15,0-13.86-2.81-20.11-8.44s-9.38-14.62-9.38-26.97c0-11.17,2.97-19.84,8.92-26.01v-.03ZM795.3,453.85c-.09-8.56-.76-14.55-1.99-17.96-1.24-3.41-3.71-5.11-7.41-5.11s-6.4,1.96-7.8,5.89-2.2,9.65-2.39,17.18h19.59Z"/>
      <path class="cls-1" d="M818.79,491.54c2.41-.38,4.48-1.16,6.21-2.35,1.73-1.18,4.36-3.93,7.92-8.24,1.47-1.8,3.41-4.31,5.82-7.54s4.4-5.83,5.97-7.82l-18.68-28.63c-1.51-2.32-2.72-3.77-3.62-4.34s-2.23-.97-3.98-1.21v-3.48h36.34v3.48c-3.36.47-5.32.82-5.89,1.03-.57.22-.85.77-.85,1.67,0,1.09,1.22,3.56,3.65,7.41s4.58,7.03,6.43,9.55c5-6.28,8.1-10.28,9.27-11.99,1.18-1.71,1.77-3.12,1.77-4.26,0-1.42-.58-2.32-1.73-2.7-1.16-.38-3.06-.61-5.71-.71v-3.48h24.36v3.48c-1.79.33-3.27.73-4.44,1.21-2.16.95-4.02,2.39-5.58,4.34l-15.03,18.53,21.72,32.99c.52.8,1.1,1.41,1.74,1.81s1.5.82,2.59,1.24v3.34h-35v-3.34c2.04-.09,3.64-.33,4.83-.71,1.18-.38,1.78-1.18,1.78-2.42,0-.8-.5-2.11-1.49-3.91-.57-1.09-1.49-2.63-2.77-4.62-.7-1.1-1.71-2.62-3.02-4.56s-2.51-3.74-3.58-5.42c-3.11,3.98-5.43,7.04-6.96,9.19-3.17,4.45-4.75,7.32-4.75,8.6,0,1.52.6,2.51,1.81,2.99,1.21.47,3.02.76,5.43.85v3.34h-24.55v-3.34.02Z"/>
      <path class="cls-2" d="M959.47,399.34c5.54,1.56,8.63,2.34,9.3,2.34,1.37,0,2.67-.38,3.91-1.14,1.23-.76,2.08-1.94,2.55-3.55h3.05l1.35,32.65h-3.34c-1.94-6.48-4.47-11.71-7.59-15.69-5.96-7.48-13.98-11.21-24.06-11.21s-18.49,4.02-24.95,12.07c-6.46,8.05-9.69,19.12-9.69,33.22,0,12.97,3.4,23.32,10.19,31.05,6.79,7.74,15.39,11.61,25.8,11.61,7.52,0,14.45-1.8,20.79-5.39,3.65-2.04,7.64-5.11,12-9.23l2.7,2.7c-3.22,4.07-7.22,7.64-12,10.72-8.14,5.2-16.96,7.81-26.48,7.81-15.62,0-28.01-4.99-37.19-14.97-8.47-9.23-12.7-20.75-12.7-34.57s4.47-26.02,13.41-35.63c9.42-10.08,21.67-15.12,36.77-15.12,5.25,0,10.64.78,16.18,2.34h0Z"/>
      <path class="cls-2" d="M1002.06,463.57c4.35-2.84,13.03-6.69,26.05-11.57v-6.03c0-4.83-.47-8.19-1.42-10.08-1.61-3.17-4.94-4.75-10.01-4.75-2.41,0-4.71.61-6.88,1.85-2.18,1.28-3.27,3.03-3.27,5.25,0,.57.12,1.53.36,2.88.23,1.35.35,2.21.35,2.59,0,2.65-.88,4.5-2.63,5.54-.99.62-2.18.92-3.55.92-2.13,0-3.76-.7-4.9-2.1-1.14-1.39-1.7-2.94-1.7-4.65,0-3.31,2.05-6.78,6.14-10.4s10.09-5.43,17.99-5.43c9.18,0,15.4,2.98,18.67,8.94,1.75,3.27,2.62,8.02,2.62,14.27v28.46c0,2.75.19,4.64.57,5.68.61,1.85,1.89,2.77,3.83,2.77,1.09,0,1.99-.16,2.7-.5.71-.33,1.94-1.14,3.69-2.41v3.69c-1.52,1.85-3.15,3.36-4.9,4.54-2.65,1.8-5.35,2.7-8.09,2.7-3.22,0-5.55-1.04-6.99-3.12s-2.23-4.56-2.38-7.45c-3.6,3.12-6.67,5.44-9.23,6.95-4.31,2.56-8.4,3.83-12.28,3.83-4.07,0-7.59-1.43-10.57-4.29s-4.47-6.49-4.47-10.9c0-6.86,3.43-12.58,10.29-17.18h.01ZM1028.11,455.55c-5.44,1.8-9.94,3.79-13.49,5.96-6.81,4.21-10.22,8.99-10.22,14.34,0,4.31,1.42,7.48,4.26,9.51,1.85,1.33,3.91,1.99,6.18,1.99,3.12,0,6.11-.88,8.98-2.63,2.86-1.75,4.3-3.98,4.3-6.67v-22.5h-.01Z"/>
      <path class="cls-2" d="M1051.6,492.53c4.35-.38,7.24-1.15,8.66-2.31s2.13-3.63,2.13-7.42v-32.01c0-4.68-.44-8.03-1.31-10.04-.88-2.01-2.48-3.02-4.79-3.02-.47,0-1.1.06-1.88.18s-1.6.28-2.45.46v-2.34c2.69-.95,5.45-1.91,8.28-2.91,2.83-.99,4.79-1.7,5.87-2.13,2.36-.9,4.79-1.92,7.29-3.05.33,0,.53.12.6.35.07.24.11.73.11,1.49v11.64c3.04-4.21,5.97-7.5,8.79-9.87,2.82-2.36,5.75-3.55,8.79-3.55,2.42,0,4.39.72,5.91,2.16,1.52,1.44,2.28,3.25,2.28,5.43,0,1.94-.58,3.57-1.74,4.9s-2.61,1.99-4.36,1.99-3.61-.83-5.43-2.48c-1.82-1.66-3.25-2.48-4.3-2.48-1.66,0-3.69,1.34-6.1,4.01s-3.62,5.43-3.62,8.27v32.01c0,4.07.95,6.9,2.84,8.48,1.89,1.59,5.04,2.33,9.44,2.23v2.34h-34.99v-2.34h-.02Z"/>
      <path class="cls-2" d="M1150.19,435.22c5.01,4.61,7.52,11.16,7.52,19.63h-45.07c.47,10.95,2.96,18.93,7.45,23.94,4.49,5,9.82,7.51,15.97,7.51,4.97,0,9.16-1.3,12.56-3.9,3.41-2.6,6.55-6.28,9.44-11.05l2.48.85c-1.94,6.02-5.57,11.59-10.89,16.71s-11.84,7.68-19.56,7.68c-8.9,0-15.77-3.36-20.62-10.08-4.85-6.72-7.28-14.45-7.28-23.21,0-9.51,2.81-17.72,8.45-24.63,5.63-6.91,12.96-10.36,22-10.36,6.67,0,12.51,2.31,17.53,6.92h.02ZM1116.19,440.65c-1.52,2.55-2.6,5.77-3.27,9.65h29.95c-.52-4.73-1.42-8.26-2.7-10.58-2.32-4.16-6.2-6.24-11.64-6.24s-9.51,2.39-12.35,7.17h.01Z"/>
    </g>
    <g>
      <path class="cls-2" d="M450.18,546.61c1.83-3.24,4.33-5.78,7.5-7.61,3.17-1.83,6.68-2.75,10.55-2.75,4.54,0,8.52,1.1,11.9,3.29s5.85,5.3,7.42,9.32h-6.51c-1.16-2.51-2.82-4.44-4.99-5.79-2.17-1.35-4.78-2.03-7.8-2.03s-5.51.68-7.82,2.03-4.12,3.27-5.44,5.77-1.97,5.41-1.97,8.76.66,6.2,1.97,8.7c1.31,2.5,3.13,4.41,5.44,5.77s4.92,2.03,7.82,2.03,5.63-.66,7.8-2,3.83-3.26,4.99-5.77h6.51c-1.55,3.99-4.02,7.06-7.42,9.23-3.38,2.17-7.36,3.26-11.9,3.26-3.86,0-7.37-.9-10.55-2.72s-5.67-4.33-7.5-7.57c-1.83-3.23-2.75-6.87-2.75-10.94s.92-7.71,2.75-10.97h0Z"/>
      <path class="cls-2" d="M495.61,553.14c1.35-2.52,3.21-4.5,5.6-5.89,2.37-1.4,5.01-2.09,7.92-2.09s5.36.62,7.47,1.85c2.11,1.24,3.68,2.79,4.72,4.67v-5.98h5.5v32.75h-5.5v-6.09c-1.09,1.92-2.68,3.5-4.82,4.75-2.13,1.25-4.61,1.89-7.44,1.89s-5.54-.72-7.88-2.16c-2.35-1.44-4.2-3.44-5.57-6.03s-2.03-5.54-2.03-8.85.68-6.29,2.03-8.81h0ZM519.8,555.55c-1-1.83-2.34-3.24-4.03-4.22s-3.55-1.47-5.58-1.47-3.88.48-5.55,1.44-3.02,2.35-4,4.19c-1,1.83-1.49,3.99-1.49,6.46s.49,4.69,1.49,6.54c1,1.86,2.34,3.27,4,4.24,1.68.97,3.52,1.47,5.55,1.47s3.89-.49,5.58-1.47c1.69-.97,3.03-2.4,4.03-4.24s1.49-4.02,1.49-6.49-.51-4.62-1.49-6.46h0Z"/>
      <path class="cls-2" d="M545.55,546.64c1.78-1.03,3.93-1.55,6.49-1.55v5.63h-1.44c-6.09,0-9.14,3.31-9.14,9.93v17.81h-5.44v-32.75h5.44v5.33c.96-1.88,2.33-3.33,4.09-4.37h0Z"/>
      <path class="cls-2" d="M588.01,564.1h-26.18c.2,3.23,1.31,5.75,3.33,7.57,2.02,1.82,4.46,2.72,7.32,2.72,2.35,0,4.31-.55,5.88-1.65,1.58-1.1,2.68-2.57,3.31-4.4h5.87c-.87,3.16-2.62,5.71-5.26,7.68-2.62,1.97-5.89,2.96-9.8,2.96-3.1,0-5.88-.69-8.33-2.09s-4.37-3.37-5.77-5.95c-1.4-2.58-2.09-5.55-2.09-8.94s.68-6.36,2.03-8.91,3.26-4.51,5.71-5.89c2.45-1.37,5.27-2.06,8.46-2.06s5.85.68,8.25,2.03c2.4,1.35,4.24,3.23,5.53,5.6,1.3,2.37,1.95,5.05,1.95,8.04,0,1.03-.06,2.13-.18,3.29h-.01ZM581.19,554.33c-.92-1.49-2.16-2.62-3.74-3.41-1.58-.78-3.31-1.17-5.23-1.17-2.75,0-5.09.87-7.02,2.62s-3.05,4.19-3.33,7.29h20.68c0-2.07-.45-3.85-1.37-5.34h0Z"/>
      <path class="cls-2" d="M639.53,545.7l-19.72,48.18h-5.63l6.46-15.78-13.21-32.4h6.03l10.28,26.55,10.17-26.55h5.63Z"/>
      <path class="cls-2" d="M650.92,576.9c-2.5-1.4-4.44-3.37-5.87-5.95-1.41-2.58-2.11-5.55-2.11-8.94s.73-6.3,2.19-8.87,3.44-4.54,5.95-5.92c2.51-1.37,5.32-2.06,8.43-2.06s5.92.69,8.43,2.06c2.51,1.37,4.5,3.34,5.95,5.89s2.19,5.51,2.19,8.91-.75,6.36-2.24,8.94c-1.49,2.57-3.52,4.55-6.08,5.95s-5.37,2.09-8.49,2.09-5.85-.69-8.33-2.09h-.01ZM664.75,572.82c1.72-.92,3.1-2.28,4.16-4.12s1.59-4.07,1.59-6.7-.52-4.86-1.56-6.7c-1.03-1.83-2.4-3.2-4.06-4.09-1.68-.9-3.48-1.34-5.44-1.34s-3.82.45-5.47,1.34-2.99,2.26-3.98,4.09-1.49,4.06-1.49,6.7.49,4.92,1.47,6.75c.97,1.83,2.28,3.2,3.92,4.09,1.64.9,3.43,1.34,5.37,1.34s3.78-.45,5.5-1.37h0Z"/>
      <path class="cls-2" d="M712.28,545.7v32.75h-5.44v-4.84c-1.03,1.68-2.48,2.97-4.33,3.92-1.85.93-3.89,1.41-6.12,1.41-2.55,0-4.84-.52-6.87-1.58s-3.64-2.64-4.82-4.75c-1.17-2.11-1.76-4.68-1.76-7.71v-19.19h5.37v18.47c0,3.23.82,5.71,2.45,7.44,1.64,1.73,3.86,2.59,6.7,2.59s5.2-.9,6.87-2.69c1.68-1.79,2.51-4.4,2.51-7.84v-17.99h5.44Z"/>
      <path class="cls-2" d="M737.43,553.14c1.35-2.52,3.24-4.5,5.65-5.89,2.41-1.4,5.17-2.09,8.28-2.09,4.02,0,7.35.97,9.95,2.93s4.34,4.67,5.17,8.14h-5.87c-.56-1.99-1.65-3.57-3.26-4.72s-3.61-1.73-6.01-1.73c-3.1,0-5.61,1.07-7.53,3.2s-2.88,5.15-2.88,9.05.96,6.99,2.88,9.15c1.92,2.16,4.43,3.23,7.53,3.23,2.4,0,4.38-.56,5.98-1.68s2.69-2.71,3.29-4.78h5.87c-.87,3.36-2.62,6.03-5.26,8.04-2.62,2.02-5.92,3.02-9.86,3.02-3.1,0-5.87-.69-8.28-2.09s-4.3-3.37-5.65-5.92c-1.35-2.55-2.03-5.54-2.03-8.97s.68-6.34,2.03-8.87h-.01Z"/>
      <path class="cls-2" d="M773.72,553.14c1.35-2.52,3.21-4.5,5.6-5.89,2.37-1.4,5.01-2.09,7.92-2.09s5.36.62,7.47,1.85c2.11,1.24,3.68,2.79,4.72,4.67v-5.98h5.5v32.75h-5.5v-6.09c-1.09,1.92-2.68,3.5-4.82,4.75s-4.61,1.89-7.44,1.89-5.54-.72-7.88-2.16c-2.35-1.44-4.2-3.44-5.57-6.03-1.35-2.59-2.03-5.54-2.03-8.85s.68-6.29,2.03-8.81h0ZM797.93,555.55c-1-1.83-2.34-3.24-4.03-4.22-1.69-.97-3.55-1.47-5.58-1.47s-3.88.48-5.55,1.44-3.02,2.35-4,4.19c-1,1.83-1.49,3.99-1.49,6.46s.49,4.69,1.49,6.54c1,1.86,2.34,3.27,4,4.24,1.68.97,3.52,1.47,5.55,1.47s3.89-.49,5.58-1.47,3.03-2.4,4.03-4.24,1.49-4.02,1.49-6.49-.51-4.62-1.49-6.46h0Z"/>
      <path class="cls-2" d="M839.77,548.71c2.47,2.41,3.71,5.89,3.71,10.43v19.3h-5.39v-18.53c0-3.27-.82-5.77-2.45-7.5s-3.86-2.59-6.7-2.59-5.15.9-6.84,2.69c-1.69,1.79-2.54,4.4-2.54,7.82v18.12h-5.44v-32.75h5.44v4.67c1.07-1.68,2.54-2.97,4.4-3.89,1.85-.92,3.89-1.37,6.12-1.37,3.99,0,7.2,1.2,9.69,3.61h0Z"/>
      <path class="cls-2" d="M878.67,547.01c2.16-1.24,4.6-1.85,7.35-1.85,2.95,0,5.6.69,7.95,2.09s4.2,3.36,5.55,5.89c1.35,2.52,2.03,5.47,2.03,8.81s-.68,6.26-2.03,8.85-3.21,4.6-5.58,6.03-5.02,2.16-7.92,2.16-5.32-.62-7.44-1.85c-2.13-1.24-3.74-2.81-4.81-4.72v6.03h-5.44v-44.23h5.44v17.57c1.11-1.95,2.75-3.54,4.91-4.78h0ZM894.52,555.5c-1-1.83-2.34-3.23-4.03-4.19-1.69-.96-3.55-1.44-5.58-1.44s-3.83.49-5.53,1.47-3.05,2.4-4.06,4.24-1.52,3.99-1.52,6.43.51,4.62,1.52,6.49c1.02,1.86,2.37,3.27,4.06,4.24s3.54,1.47,5.53,1.47,3.89-.49,5.58-1.47,3.03-2.4,4.03-4.24c.99-1.85,1.49-4.03,1.49-6.54s-.51-4.62-1.49-6.46h0Z"/>
      <path class="cls-2" d="M938.45,564.1h-26.18c.2,3.23,1.31,5.75,3.33,7.57s4.46,2.72,7.32,2.72c2.35,0,4.31-.55,5.88-1.65s2.68-2.57,3.31-4.4h5.87c-.87,3.16-2.62,5.71-5.26,7.68-2.62,1.97-5.89,2.96-9.8,2.96-3.1,0-5.88-.69-8.33-2.09s-4.37-3.37-5.77-5.95c-1.4-2.58-2.09-5.55-2.09-8.94s.68-6.36,2.03-8.91,3.26-4.51,5.71-5.89c2.45-1.37,5.27-2.06,8.46-2.06s5.85.68,8.25,2.03,4.24,3.23,5.53,5.6c1.3,2.37,1.95,5.05,1.95,8.04,0,1.03-.06,2.13-.18,3.29h-.01ZM931.63,554.33c-.92-1.49-2.16-2.62-3.74-3.41-1.58-.78-3.31-1.17-5.23-1.17-2.75,0-5.09.87-7.02,2.62-1.93,1.75-3.05,4.19-3.33,7.29h20.68c0-2.07-.45-3.85-1.37-5.34h0Z"/>
      <path class="cls-2" d="M951.24,534.22v44.23h-5.44v-44.23h5.44Z"/>
      <path class="cls-2" d="M960.69,539.3c-.72-.72-1.07-1.59-1.07-2.62s.35-1.92,1.07-2.62,1.59-1.07,2.62-1.07,1.85.35,2.54,1.07,1.04,1.59,1.04,2.62-.35,1.92-1.04,2.62c-.7.72-1.55,1.07-2.54,1.07s-1.92-.35-2.62-1.07ZM965.95,545.7v32.75h-5.44v-32.75h5.44Z"/>
      <path class="cls-2" d="M1004.91,564.1h-26.18c.2,3.23,1.31,5.75,3.33,7.57s4.46,2.72,7.32,2.72c2.35,0,4.31-.55,5.88-1.65,1.58-1.1,2.68-2.57,3.31-4.4h5.87c-.87,3.16-2.62,5.71-5.26,7.68-2.62,1.97-5.89,2.96-9.8,2.96-3.1,0-5.88-.69-8.33-2.09s-4.37-3.37-5.77-5.95c-1.4-2.58-2.09-5.55-2.09-8.94s.68-6.36,2.03-8.91,3.26-4.51,5.71-5.89c2.45-1.37,5.27-2.06,8.46-2.06s5.85.68,8.25,2.03,4.24,3.23,5.53,5.6c1.3,2.37,1.95,5.05,1.95,8.04,0,1.03-.06,2.13-.18,3.29h-.01ZM998.09,554.33c-.92-1.49-2.16-2.62-3.74-3.41-1.58-.78-3.31-1.17-5.23-1.17-2.75,0-5.09.87-7.02,2.62-1.93,1.75-3.05,4.19-3.33,7.29h20.68c0-2.07-.45-3.85-1.37-5.34h0Z"/>
      <path class="cls-2" d="M1024.46,573.43l10.17-27.73h5.79l-12.86,32.75h-6.33l-12.86-32.75h5.85l10.22,27.73h.01Z"/>
      <path class="cls-2" d="M1075.51,564.1h-26.18c.2,3.23,1.31,5.75,3.33,7.57s4.46,2.72,7.32,2.72c2.35,0,4.31-.55,5.88-1.65,1.58-1.1,2.68-2.57,3.31-4.4h5.87c-.87,3.16-2.62,5.71-5.26,7.68-2.62,1.97-5.89,2.96-9.8,2.96-3.1,0-5.88-.69-8.33-2.09s-4.37-3.37-5.77-5.95c-1.4-2.58-2.09-5.55-2.09-8.94s.68-6.36,2.03-8.91,3.26-4.51,5.71-5.89c2.45-1.37,5.27-2.06,8.46-2.06s5.85.68,8.25,2.03c2.4,1.35,4.24,3.23,5.53,5.6,1.3,2.37,1.95,5.05,1.95,8.04,0,1.03-.06,2.13-.18,3.29h-.01ZM1068.68,554.33c-.92-1.49-2.16-2.62-3.74-3.41-1.58-.78-3.31-1.17-5.23-1.17-2.75,0-5.09.87-7.02,2.62s-3.05,4.19-3.33,7.29h20.68c0-2.07-.45-3.85-1.37-5.34h0Z"/>
      <path class="cls-2" d="M1099,539.3c-.72-.72-1.07-1.59-1.07-2.62s.35-1.92,1.07-2.62c.72-.72,1.59-1.07,2.62-1.07s1.85.35,2.54,1.07,1.04,1.59,1.04,2.62-.35,1.92-1.04,2.62c-.7.72-1.55,1.07-2.54,1.07s-1.92-.35-2.62-1.07ZM1104.26,545.7v32.75h-5.44v-32.75h5.44Z"/>
      <path class="cls-2" d="M1139.16,548.71c2.47,2.41,3.71,5.89,3.71,10.43v19.3h-5.39v-18.53c0-3.27-.82-5.77-2.45-7.5s-3.86-2.59-6.7-2.59-5.15.9-6.84,2.69c-1.69,1.79-2.54,4.4-2.54,7.82v18.12h-5.44v-32.75h5.44v4.67c1.07-1.68,2.54-2.97,4.4-3.89,1.85-.92,3.89-1.37,6.12-1.37,3.99,0,7.2,1.2,9.69,3.61h0Z"/>
    </g>
  </g>
</svg>
