<?xml version="1.0" encoding="UTF-8"?>
<svg id="Layer_1" data-name="Layer 1" xmlns="http://www.w3.org/2000/svg" viewBox="0 0 1298.5 737.4">
  <defs>
    <style>
      .cls-1 {
        fill: #2a66b0;
      }

      .cls-2 {
        fill: #808081;
      }
    </style>
  </defs>
  <g>
    <path class="cls-1" d="M195.3,340.4c4.2,1.1,7.6,3.4,10.9,6,6.5,5.2,12,11.5,17.6,17.7,8.1,9,15.8,18.4,24.9,26.4,4.8,4.2,10,8,16.1,10.2,1.3.5,2.5.5,3.8,0,6-2.2,11.1-5.8,15.9-10,7.6-6.6,14-14.2,20.8-21.6,6.3-6.9,12.8-13.8,19.4-20.4s7.7-6.5,12.5-8.3c.2,0,.5-.2,1-.4-2,2.1-4,4-5.7,6-5.5,6.5-10.1,13.7-14.2,21.2-9.6,17.2-17.5,35.1-23.5,53.9-3.6,11.6-4.3,23.2-2.5,35.1,1.6,10.2,3.2,20.4,4.8,30.5.1.7,0,1.7-.5,2.2-9.8,10.8-19.7,21.5-29.5,32.2,0,0-.2,0-.4.2-3.6-3.9-7.2-7.8-10.8-11.7-6.2-6.8-12.4-13.5-18.6-20.3-.9-.9-1.1-1.8-.8-3,2.8-14.2,5.1-28.5,5.9-43,.3-6.4-.9-12.6-2.7-18.6-7.5-25.9-18.7-50.2-33.9-72.5-1.5-2.2-3.1-4.3-4.9-6.3-1.7-1.9-3.7-3.6-5.5-5.5h-.1Z"/>
    <path class="cls-1" d="M443.1,356.8h-33.3c-.7,0-1.6-.4-2.1-.9-45.7-45.6-91.4-91.3-137-137-.4-.4-.7-1-1.2-1.7-1.8,1.9-3.2,3.4-4.7,4.9-38.2,38.2-76.4,76.3-114.5,114.5-9.3,9.3-18.6,18.6-28,27.9-.8.8-1.2,1.6-1.2,2.7v221.8h80.6c.2-1.8.3-3.5.5-5.2.4-3.1.8-6.2,1.1-9.4,0-.6-.2-1.4-.6-1.9-11.7-16.7-23.4-33.5-35.1-50.1-.8-1.1-1-2-.3-3.3,13.6-26.7,27.2-53.4,40.8-80.1,1.1-2.2,2.3-4.4,3.5-6.8,2.8,1.9,4.6,4.5,5.8,7.5,2.1,5.3,1.9,10.7,1.1,16.2-.9,6.6-3.7,12.6-5.9,18.7-4.7,13.1-9.5,26.2-14.2,39.4-.2.6,0,1.6.3,2.2,6,9,12.2,18,18.1,27,1.3,2,2.2,4.2,3.1,6.4,2,4.9,3.8,9.9,6,14.8-.2-2-.4-4-.6-6-.5-5.2-1.1-10.5-1.6-15.7,0-.7-.3-1.5-.7-2.1-5.3-8.6-10.6-17.3-16-25.9-.8-1.2-.8-2.3-.3-3.6,2.1-5.6,4.1-11.2,6.1-16.8.2-.5.4-1,.5-1.2,4.2,4,8.4,8,12.5,12.1,10.3,10.4,20.6,20.9,30.9,31.3,1.4,1.4,2.1,2.9,2.2,5,.4,12.1,1,24.2,1.5,36.3.1,3.7,0,7.5,0,11.3h17.9v-4c.6-15.2,1.2-30.4,1.9-45.6,0-.6.4-1.2.8-1.6,13.2-13.5,26.4-26.9,39.7-40.3,1.6-1.6,3.2-3.1,4.9-4.8,1,2.8,2,5.5,3,8.3,1.3,3.6,2.7,7.1,3.9,10.7.2.7.2,1.8-.2,2.4-5.4,8.8-10.8,17.6-16.2,26.4-.3.5-.6,1.1-.7,1.6-.8,7.4-1.5,14.9-2,22.4.1-.3.3-.6.4-.8,2-5.3,3.8-10.8,6.1-16,1.6-3.5,3.8-6.8,6-10,4.8-7.2,9.6-14.3,14.5-21.5.6-.9.6-1.6.2-2.6-5.9-16.3-11.9-32.6-17.8-48.9-2.6-7.2-3.7-14.6-2-22.3,1-4.5,3.5-8.3,6.7-10.2,4.5,8.8,8.9,17.5,13.3,26.2,10.3,20.2,20.5,40.5,30.9,60.6.6,1.3.6,2.1-.2,3.2-11.7,16.7-23.4,33.3-35,50-.5.7-.8,1.8-.7,2.7.5,4.7,1,9.3,1.5,14.1h70.8v24.8H96.3v-256.8c0-1.1.3-1.9,1.1-2.7,56.9-56.9,113.8-113.8,170.7-170.6.4-.4.7-.8.9-1.1l174.2,174.2h0l-.1-.1Z"/>
  </g>
  <g>
    <path class="cls-1" d="M415,539.9c6.4,0,10.5-1.2,12.5-3.5,2-2.2,2.9-5.6,2.9-9.9v-79.9c0-4.6-1-7.5-3.2-9s-6-2.4-11.7-2.8v-4.3h42.3l33.1,77.8h1.4l32.8-77.8h42.4v4.3c-5.7.5-9.6,1.5-11.7,3.1-2.1,1.6-3.1,5.8-3.1,12.3v74.4c0,6.1,1,10.2,3.1,12.1s6,3,11.7,3.2v4.3h-55.9v-4.3c5-.1,8.8-1,11.2-2.5,2.5-1.5,3.8-4.9,3.8-9.8v-82.1h-1.3l-41.2,98.9h-4.5l-41.6-96.9h-.7v76c0,5.6,1,9.7,3.1,12.3s6.7,4,13.8,4.3v4.3h-39.3v-4.3h0l.1-.2Z"/>
    <path class="cls-1" d="M574.1,540.1c3-.5,5-1.3,6-2.2,1.6-1.5,2.4-4.2,2.4-8v-49.4c0-3.5-.6-5.8-1.7-6.9s-3.5-2.2-6.8-2.8v-4h32.3v63.8c0,3.7.6,6,1.6,7.1s3.1,1.9,6.1,2.4v4h-40v-4h.1ZM585.4,431.7c2.5-2.5,5.7-3.8,9.3-3.8s6.6,1.3,9.1,3.8,3.8,5.7,3.8,9.3-1.3,6.7-3.8,9.3-5.6,3.8-9.1,3.8-6.7-1.3-9.3-3.8c-2.5-2.5-3.8-5.7-3.8-9.3s1.3-6.7,3.8-9.3Z"/>
    <path class="cls-1" d="M620.9,540.1c3-.3,5.3-1.2,6.8-2.5,1.4-1.3,2.2-3.8,2.2-7.6v-49.4c0-3.5-.6-5.8-1.7-7.2-1.2-1.3-3.6-2.2-7.2-2.7v-4h31.8v12c2.7-4,6.1-7.4,10.2-10.1,4.2-2.7,8.7-3.9,13.8-3.9s12.8,1.9,16.8,5.6c3.9,3.7,5.9,10.3,5.9,19.7v40.6c0,3.8.7,6.2,2,7.3s3.5,1.9,6.5,2.2v4h-39.4v-4c3-.6,5.1-1.4,6.1-2.4s1.6-3.4,1.6-7.1v-40.7c0-3.8-.3-6.7-1.2-8.7-1.3-3.5-3.9-5.2-7.7-5.2s-5.6,1-8,3.1-4.3,4.3-5.7,6.4v45c0,3.7.6,6,1.6,7.1s3.1,1.9,6.1,2.4v4h-40.5v-4h0v.2-.1Z"/>
    <path class="cls-1" d="M714.3,474.1v-4.6c1.5-1.4,3.4-3,5.6-4.9,2.9-2.7,5.7-5.4,8.2-8.3,5.1-5.6,9.7-11.6,13.9-17.9h4.3v28.4h16v7.4h-16v50.5c0,2.3.3,4.3,1,5.9,1.2,2.4,2.9,3.7,5.4,3.7s4-.8,5.6-2.3,3-3.7,4.4-6.5l4,2c-2,4.6-4.3,8.3-7.1,11.2-4.9,5.1-10.6,7.6-17.6,7.6s-7.4-.7-10.3-2.2c-5.7-2.9-8.6-8-8.6-15.5v-54.5h-8.9.1Z"/>
    <path class="cls-1" d="M781.6,475.5c6.9-7.2,15.1-10.8,24.9-10.8s10.8,1.5,15.6,4.4,8.7,6.9,11.2,12c2,3.9,3.4,8.9,4,15.1.3,2.9.6,5.1.6,6.7h-42.9c.3,6.7,1.5,12.6,3.2,17.5,3.4,9.3,9.1,13.9,17.3,13.9s7.6-1.3,11.2-3.7c2.2-1.5,4.7-3.9,8-7.5l3.8,2.4c-5.2,8.6-11.2,14.5-18,17.8-4.4,2.1-9.5,3.2-15.3,3.2-8.2,0-16.1-3.2-23.2-9.7-7.2-6.5-10.9-16.9-10.9-31.2s3.5-22.9,10.3-30.1h.2ZM817.3,496.7c0-9.9-.9-16.8-2.3-20.8-1.4-3.9-4.3-5.9-8.6-5.9s-7.4,2.3-9,6.8-2.5,11.2-2.8,19.9h22.7,0Z"/>
    <path class="cls-1" d="M844.5,540.2c2.8-.5,5.2-1.4,7.2-2.7,2-1.4,5.1-4.5,9.1-9.5,1.7-2.1,3.9-5,6.7-8.7s5.1-6.7,6.9-9l-21.6-33.1c-1.7-2.7-3.1-4.4-4.2-5s-2.5-1.2-4.6-1.4v-4h42v4c-3.9.6-6.1.9-6.8,1.2-.7.2-1,.9-1,2s1.4,4.2,4.2,8.6,5.3,8.1,7.4,11c5.8-7.3,9.4-11.9,10.8-13.9s2.1-3.6,2.1-5-.7-2.7-2-3.1c-1.4-.5-3.6-.7-6.6-.8v-4h28.2v4c-2.1.3-3.8.8-5.1,1.4-2.5,1.2-4.6,2.8-6.5,5l-17.3,21.4,25.1,38.2c.6.9,1.3,1.6,2,2.1s1.7.9,3,1.4v3.8h-40.5v-3.8c2.3,0,4.2-.3,5.6-.8,1.4-.5,2.1-1.4,2.1-2.8s-.6-2.4-1.7-4.5c-.7-1.3-1.7-3-3.2-5.3-.8-1.3-2-3-3.5-5.3s-2.9-4.3-4.2-6.2c-3.6,4.6-6.2,8.1-8.1,10.6-3.7,5.2-5.6,8.4-5.6,9.9s.7,2.9,2.1,3.5,3.5.9,6.2.9v3.8h-28.3v-3.8h.2l-.1-.1Z"/>
    <path class="cls-2" d="M1007.2,433.6c6.4,1.9,9.9,2.7,10.8,2.7,1.6,0,3.1-.5,4.5-1.3,1.4-.9,2.4-2.2,2.9-4h3.5l1.5,37.8h-3.8c-2.2-7.5-5.2-13.5-8.8-18.2-6.9-8.7-16.2-13-27.9-13s-21.4,4.6-28.9,14c-7.5,9.3-11.2,22.1-11.2,38.4s3.9,26.9,11.8,35.9c7.9,8.9,17.8,13.4,29.8,13.4s16.8-2.1,24.1-6.2c4.3-2.3,8.8-5.9,13.9-10.6l3.1,3.1c-3.7,4.7-8.3,8.8-13.9,12.4-9.4,6-19.7,9-30.6,9-18,0-32.4-5.8-43-17.3-9.8-10.6-14.7-24.1-14.7-40s5.2-30.1,15.5-41.2c10.9-11.7,25.1-17.5,42.6-17.5s12.3.9,18.7,2.7h.2l-.1-.1Z"/>
    <path class="cls-2" d="M1056.5,507.9c5-3.2,15-7.7,30.1-13.4v-6.9c0-5.6-.6-9.5-1.6-11.7-1.9-3.7-5.7-5.6-11.6-5.6s-5.4.7-8,2.1c-2.5,1.5-3.8,3.5-3.8,6s.1,1.7.5,3.4c.2,1.5.3,2.5.3,3,0,3.1-1,5.2-3,6.4-1.2.7-2.5,1-4,1-2.4,0-4.4-.8-5.7-2.4-1.3-1.6-2-3.4-2-5.4,0-3.8,2.3-7.9,7.1-12s11.7-6.2,20.8-6.2,17.8,3.5,21.6,10.3c2.1,3.8,3,9.3,3,16.5v33c0,3.2.2,5.3.7,6.6.7,2.1,2.2,3.2,4.4,3.2s2.3-.2,3.1-.6,2.2-1.3,4.3-2.8v4.3c-1.7,2.1-3.7,3.9-5.7,5.2-3.1,2.1-6.1,3.1-9.4,3.1s-6.4-1.2-8.1-3.6-2.5-5.3-2.8-8.7c-4.2,3.6-7.7,6.2-10.6,8.1-5,3-9.7,4.4-14.2,4.4s-8.8-1.6-12.3-5-5.2-7.5-5.2-12.6c0-8,3.9-14.6,11.9-19.9h0v.2h.2ZM1086.6,498.7c-6.2,2.1-11.4,4.4-15.6,6.9-7.9,4.9-11.8,10.4-11.8,16.5s1.6,8.7,5,11c2.1,1.5,4.5,2.3,7.2,2.3s7.1-1,10.4-3c3.4-2.1,5-4.6,5-7.7v-26h-.2Z"/>
    <path class="cls-2" d="M1113.7,541.4c5-.5,8.3-1.4,10.1-2.7s2.4-4.2,2.4-8.6v-37c0-5.4-.5-9.3-1.5-11.6s-2.9-3.5-5.6-3.5-1.3,0-2.2.2-1.9.3-2.9.6v-2.7c3.1-1.2,6.4-2.2,9.6-3.4s5.6-2,6.8-2.4c2.8-1,5.6-2.2,8.4-3.5.3,0,.6.1.7.3,0,.2.1.8.1,1.7v13.4c3.5-4.9,6.9-8.7,10.2-11.4s6.7-4,10.2-4,5.1.8,6.8,2.5c1.7,1.6,2.7,3.7,2.7,6.2s-.7,4.2-2,5.7-3,2.3-5.1,2.3-4.2-.9-6.2-2.9-3.7-2.9-5-2.9c-2,0-4.3,1.5-7.1,4.6s-4.2,6.2-4.2,9.6v37c0,4.7,1.2,8,3.2,9.8,2.2,1.9,5.8,2.7,10.9,2.5v2.7h-40.5v-2.7h0v-.2l.2.4Z"/>
    <path class="cls-2" d="M1227.8,475.1c5.8,5.3,8.7,13,8.7,22.7h-52.2c.6,12.7,3.5,21.9,8.7,27.6s11.3,8.7,18.5,8.7,10.6-1.5,14.6-4.5,7.5-7.3,10.9-12.7l2.9.9c-2.2,6.9-6.5,13.4-12.6,19.3-6.1,5.9-13.6,8.9-22.7,8.9s-18.3-3.9-23.8-11.7c-5.6-7.7-8.4-16.8-8.4-26.8s3.2-20.5,9.8-28.4c6.5-8,15-12,25.4-12s14.5,2.7,20.2,8h0ZM1188.4,481.5c-1.7,2.9-3,6.7-3.8,11.2h34.7c-.6-5.4-1.6-9.6-3.1-12.3-2.7-4.9-7.2-7.2-13.4-7.2s-11,2.8-14.2,8.3h-.2Z"/>
  </g>
  <path class="cls-2" d="M266.7,389.1c-11,0-19.7-8.9-19.6-19.7.1-11.1,9-19.6,20.3-19.6s19.2,9.2,19.1,19.8c-.2,10.9-8.9,19.5-19.7,19.4h0l-.1.1Z"/>
</svg>