<?xml version="1.0" encoding="UTF-8"?>
<svg id="Layer_1" data-name="Layer 1" xmlns="http://www.w3.org/2000/svg" viewBox="0 0 1298.5 737.4">
  <defs>
    <style>
      .cls-1 {
        fill: #2a66b0;
      }

      .cls-2 {
        fill: #808081;
      }
    </style>
  </defs>
  <g>
    <g>
      <path class="cls-1" d="M150.85,245.12c4.2,1.1,7.6,3.4,10.9,6,6.5,5.2,12,11.5,17.6,17.7,8.1,9,15.8,18.4,24.9,26.4,4.8,4.2,10,8,16.1,10.2,1.3.5,2.5.5,3.8,0,6-2.2,11.1-5.8,15.9-10,7.6-6.6,14-14.2,20.8-21.6,6.3-6.9,12.8-13.8,19.4-20.4s7.7-6.5,12.5-8.3c.2,0,.5-.2,1-.4-2,2.1-4,4-5.7,6-5.5,6.5-10.1,13.7-14.2,21.2-9.6,17.2-17.5,35.1-23.5,53.9-3.6,11.6-4.3,23.2-2.5,35.1,1.6,10.2,3.2,20.4,4.8,30.5.1.7,0,1.7-.5,2.2-9.8,10.8-19.7,21.5-29.5,32.2,0,0-.2,0-.4.2-3.6-3.9-7.2-7.8-10.8-11.7-6.2-6.8-12.4-13.5-18.6-20.3-.9-.9-1.1-1.8-.8-3,2.8-14.2,5.1-28.5,5.9-43,.3-6.4-.9-12.6-2.7-18.6-7.5-25.9-18.7-50.2-33.9-72.5-1.5-2.2-3.1-4.3-4.9-6.3-1.7-1.9-3.7-3.6-5.5-5.5h-.1Z"/>
      <path class="cls-1" d="M215.95,482.51c.09,3.33.02,6.75.01,10.17h-58.61c.14-1.43.24-2.8.4-4.17.4-3.1.8-6.2,1.1-9.4,0-.6-.2-1.4-.6-1.9-11.7-16.7-23.4-33.5-35.1-50.1-.8-1.1-1-2-.3-3.3,13.6-26.7,27.2-53.4,40.8-80.1,1.1-2.2,2.3-4.4,3.5-6.8,2.8,1.9,4.6,4.5,5.8,7.5,2.1,5.3,1.9,10.7,1.1,16.2-.9,6.6-3.7,12.6-5.9,18.7-4.7,13.1-9.5,26.2-14.2,39.4-.2.6,0,1.6.3,2.2,6,9,12.2,18,18.1,27,1.3,2,2.2,4.2,3.1,6.4,2,4.9,3.8,9.9,6,14.8-.2-2-.4-4-.6-6-.5-5.2-1.1-10.5-1.6-15.7,0-.7-.3-1.5-.7-2.1-5.3-8.6-10.6-17.3-16-25.9-.8-1.2-.8-2.3-.3-3.6,2.1-5.6,4.1-11.2,6.1-16.8.2-.5.4-1,.5-1.2,4.2,4,8.4,8,12.5,12.1,10.3,10.4,20.6,20.9,30.9,31.3,1.4,1.4,2.1,2.9,2.2,5,.4,12.1,1,24.2,1.5,36.3Z"/>
      <path class="cls-1" d="M291.35,479.71c.46,4.33.92,8.58,1.38,12.97h-58.88v-2.87c.6-15.2,1.2-30.4,1.9-45.6,0-.6.4-1.2.8-1.6,13.2-13.5,26.4-26.9,39.7-40.3,1.6-1.6,3.2-3.1,4.9-4.8,1,2.8,2,5.5,3,8.3,1.3,3.6,2.7,7.1,3.9,10.7.2.7.2,1.8-.2,2.4-5.4,8.8-10.8,17.6-16.2,26.4-.3.5-.6,1.1-.7,1.6-.8,7.4-1.5,14.9-2,22.4.1-.3.3-.6.4-.8,2-5.3,3.8-10.8,6.1-16,1.6-3.5,3.8-6.8,6-10,4.8-7.2,9.6-14.3,14.5-21.5.6-.9.6-1.6.2-2.6-5.9-16.3-11.9-32.6-17.8-48.9-2.6-7.2-3.7-14.6-2-22.3,1-4.5,3.5-8.3,6.7-10.2,4.5,8.8,8.9,17.5,13.3,26.2,10.3,20.2,20.5,40.5,30.9,60.6.6,1.3.6,2.1-.2,3.2-11.7,16.7-23.4,33.3-35,50-.5.7-.8,1.8-.7,2.7Z"/>
    </g>
    <path class="cls-2" d="M222.25,293.82c-11,0-19.7-8.9-19.6-19.7.1-11.1,9-19.6,20.3-19.6s19.2,9.2,19.1,19.8c-.2,10.9-8.9,19.5-19.7,19.4h0l-.1.1Z"/>
  </g>
  <g>
    <path class="cls-1" d="M486.92,330.16v90.26h-25.09v-49.8l-17.03,49.8h-21l-17.16-50.19v50.19h-25.09v-90.26h30.34l22.66,58.64,22.15-58.64h30.21Z"/>
    <path class="cls-1" d="M503.25,338.29c-2.69-2.43-4.03-5.48-4.03-9.15s1.34-6.87,4.03-9.35c2.69-2.47,6.25-3.71,10.69-3.71s7.87,1.24,10.56,3.71c2.69,2.48,4.03,5.59,4.03,9.35s-1.34,6.72-4.03,9.15-6.21,3.65-10.56,3.65-8-1.22-10.69-3.65ZM526.35,348.6v71.82h-25.09v-71.82h25.09Z"/>
    <path class="cls-1" d="M607.39,356.22c4.87,5.5,7.3,12.95,7.3,22.34v41.86h-25.09v-38.54c0-4.1-1.07-7.32-3.2-9.67-2.13-2.35-4.99-3.52-8.58-3.52s-6.7,1.17-8.83,3.52c-2.13,2.35-3.2,5.57-3.2,9.67v38.54h-25.09v-71.82h25.09v10.24c2.22-3.24,5.21-5.87,8.96-7.87,3.75-2,8.07-3.01,12.93-3.01,8.28,0,14.85,2.75,19.72,8.26Z"/>
    <path class="cls-1" d="M670.89,399.04v21.38h-10.88c-18.35,0-27.53-9.09-27.53-27.27v-23.68h-8.83v-20.87h8.83v-17.41h25.22v17.41h13.06v20.87h-13.06v24.07c0,1.96.45,3.37,1.34,4.23.9.85,2.41,1.28,4.54,1.28h7.3Z"/>
    <path class="cls-1" d="M750.66,389.57h-47.5c.26,3.93,1.34,6.85,3.26,8.77,1.92,1.92,4.37,2.88,7.36,2.88,4.18,0,7.17-1.88,8.96-5.63h26.76c-1.11,4.95-3.26,9.37-6.47,13.25-3.2,3.88-7.23,6.93-12.1,9.15-4.86,2.22-10.24,3.33-16.13,3.33-7.08,0-13.38-1.49-18.88-4.48-5.5-2.99-9.82-7.25-12.93-12.8-3.12-5.55-4.67-12.08-4.67-19.59s1.54-14.02,4.61-19.52,7.36-9.75,12.87-12.74c5.5-2.99,11.84-4.48,19.01-4.48s13.36,1.45,18.82,4.35c5.46,2.9,9.73,7.06,12.8,12.48,3.07,5.42,4.61,11.8,4.61,19.14,0,1.96-.13,3.93-.38,5.89ZM725.43,377.41c0-3.07-1.02-5.48-3.07-7.23-2.05-1.75-4.61-2.62-7.68-2.62s-5.59.83-7.55,2.5c-1.96,1.66-3.24,4.12-3.84,7.36h22.15Z"/>
    <path class="cls-1" d="M806.09,420.42l-12.93-18.05-10.24,18.05h-27.53l23.94-37.25-24.96-34.57h28.17l12.93,18.05,10.37-18.05h27.53l-24.45,36.62,25.35,35.21h-28.17Z"/>
    <path class="cls-2" d="M868.63,351.35c3.71-6.96,8.98-12.38,15.81-16.26,6.83-3.88,14.68-5.83,23.56-5.83,11.27,0,20.74,3.01,28.42,9.03,7.68,6.02,12.63,14.19,14.85,24.52h-27.01c-1.62-3.41-3.86-6.02-6.72-7.81-2.86-1.79-6.17-2.69-9.92-2.69-5.8,0-10.43,2.07-13.89,6.21-3.46,4.14-5.18,9.67-5.18,16.58s1.73,12.57,5.18,16.71c3.46,4.14,8.09,6.21,13.89,6.21,3.75,0,7.06-.9,9.92-2.69,2.86-1.79,5.1-4.39,6.72-7.81h27.01c-2.22,10.33-7.17,18.5-14.85,24.52-7.68,6.02-17.16,9.03-28.42,9.03-8.88,0-16.73-1.94-23.56-5.82-6.83-3.88-12.1-9.3-15.81-16.26-3.71-6.96-5.57-14.92-5.57-23.88s1.86-16.79,5.57-23.75Z"/>
    <path class="cls-2" d="M963.11,364.99c2.69-5.55,6.36-9.81,11.01-12.8,4.65-2.99,9.84-4.48,15.56-4.48,4.95,0,9.22.98,12.8,2.94,3.58,1.96,6.36,4.61,8.32,7.94v-9.99h25.09v71.82h-25.09v-9.99c-1.96,3.33-4.76,5.98-8.39,7.94-3.63,1.96-7.87,2.95-12.74,2.95-5.72,0-10.9-1.49-15.56-4.48-4.65-2.99-8.32-7.28-11.01-12.87-2.69-5.59-4.03-12.1-4.03-19.52s1.34-13.91,4.03-19.46ZM1007.02,373.56c-2.52-2.64-5.61-3.97-9.28-3.97s-6.87,1.3-9.35,3.91c-2.48,2.6-3.71,6.25-3.71,10.95s1.24,8.26,3.71,10.95c2.47,2.69,5.59,4.03,9.35,4.03s6.76-1.32,9.28-3.97c2.52-2.64,3.78-6.32,3.78-11.01s-1.26-8.24-3.78-10.88Z"/>
    <path class="cls-2" d="M1085.57,351.54c4.01-2.39,8.32-3.58,12.93-3.58v26.76h-7.04c-5.46,0-9.52,1.07-12.16,3.2-2.65,2.13-3.97,5.85-3.97,11.14v31.37h-25.09v-71.82h25.09v12.67c2.82-4.1,6.23-7.34,10.24-9.73Z"/>
    <path class="cls-2" d="M1175.7,389.57h-47.5c.26,3.93,1.34,6.85,3.26,8.77,1.92,1.92,4.37,2.88,7.36,2.88,4.18,0,7.17-1.88,8.96-5.63h26.76c-1.11,4.95-3.26,9.37-6.47,13.25-3.2,3.88-7.23,6.93-12.1,9.15-4.86,2.22-10.24,3.33-16.13,3.33-7.08,0-13.38-1.49-18.88-4.48-5.5-2.99-9.82-7.25-12.93-12.8-3.12-5.55-4.67-12.08-4.67-19.59s1.54-14.02,4.61-19.52,7.36-9.75,12.87-12.74c5.5-2.99,11.84-4.48,19.01-4.48s13.36,1.45,18.82,4.35c5.46,2.9,9.73,7.06,12.8,12.48,3.07,5.42,4.61,11.8,4.61,19.14,0,1.96-.13,3.93-.38,5.89ZM1150.48,377.41c0-3.07-1.02-5.48-3.07-7.23-2.05-1.75-4.61-2.62-7.68-2.62s-5.59.83-7.55,2.5c-1.96,1.66-3.24,4.12-3.84,7.36h22.15Z"/>
  </g>
</svg>